<?xml version="1.0" encoding="UTF-8"?>
<!DOCTYPE svg PUBLIC "-//W3C//DTD SVG 1.1//EN" "http://www.w3.org/Graphics/SVG/1.1/DTD/svg11.dtd">
<!-- Creator: CorelDRAW -->
<svg xmlns="http://www.w3.org/2000/svg" xml:space="preserve" width="8cm" height="5.39113cm" version="1.1" style="shape-rendering:geometricPrecision; text-rendering:geometricPrecision; image-rendering:optimizeQuality; fill-rule:evenodd; clip-rule:evenodd"
viewBox="0 0 3302.98 2225.85"
 xmlns:xlink="http://www.w3.org/1999/xlink"
 xmlns:xodm="http://www.corel.com/coreldraw/odm/2003">
 <defs>
  <style type="text/css">
   <![CDATA[
    .fil0 {fill:black}
    .fil36 {fill:#141314}
    .fil28 {fill:#180C13}
    .fil30 {fill:#1A1A1A}
    .fil31 {fill:#1B1B1C}
    .fil11 {fill:#1B1C1C}
    .fil10 {fill:#1F2021}
    .fil13 {fill:#232323}
    .fil3 {fill:#242424}
    .fil17 {fill:#2A1D24}
    .fil14 {fill:#2A2929}
    .fil4 {fill:#2C2D2C}
    .fil19 {fill:#2D2329}
    .fil16 {fill:#2D2D2E}
    .fil38 {fill:#343435}
    .fil33 {fill:#474748}
    .fil42 {fill:#4F4E51}
    .fil43 {fill:#6F6E71}
    .fil35 {fill:#777878}
    .fil46 {fill:#8F8E91}
    .fil25 {fill:#E6CAD2}
    .fil22 {fill:#E895C8}
    .fil2 {fill:#E975BD}
    .fil20 {fill:#E9AEC8}
    .fil12 {fill:#EADDE3}
    .fil44 {fill:#EBE4E9}
    .fil29 {fill:#EDCAD8}
    .fil37 {fill:#EDEFF1}
    .fil6 {fill:#EE85CA}
    .fil9 {fill:#F189CD}
    .fil27 {fill:#F286BB}
    .fil26 {fill:#F3D1DE}
    .fil7 {fill:#F492D4}
    .fil15 {fill:#F4F2F5}
    .fil5 {fill:#F6D3E2}
    .fil32 {fill:#F887C8}
    .fil40 {fill:#F9CADC}
    .fil41 {fill:#F9EAF1}
    .fil34 {fill:#FA95DA}
    .fil23 {fill:#FB94D4}
    .fil24 {fill:#FC8BCC}
    .fil18 {fill:#FC9BDB}
    .fil45 {fill:#FDA3DA}
    .fil39 {fill:#FEB5EF}
    .fil21 {fill:#FEFE9C}
    .fil8 {fill:#FEFEFD}
    .fil1 {fill:#FEFFFF}
   ]]>
  </style>
 </defs>
 <g id="Capa_x0020_1">
  <metadata id="CorelCorpID_0Corel-Layer"/>
  <g id="_3235459835792">
   <path class="fil0" d="M2727.89 1989.24c0.9,10.35 -0.35,33.76 -1.73,44.25 -1.32,10.07 -3.46,17.91 -7.92,26.56 -12.43,24.13 -41.76,33.08 -68.52,36.17 -28.1,3.25 -58.45,3.46 -87.04,5.84 -28.55,2.39 -58.47,3.67 -87.27,5.54 -57.7,3.76 -116.24,6.61 -173.92,11.36 -23.39,1.93 -65.9,6.6 -87.7,2.3 -29.48,-5.82 -48.05,-20.89 -57.37,-47.34 -1.01,-2.87 -2.19,-5.98 -2.9,-9.07l-2.16 -9.07c-5.18,-25.03 -3.73,-42.48 4.55,-64.85l1.13 -2.87c0.08,-0.17 0.17,-0.38 0.25,-0.54l1.59 -3.18c0.08,-0.16 0.19,-0.37 0.27,-0.53l6.51 -12.71c9.96,-16.25 2.92,-12.26 33.67,-10.41 29.21,1.76 59.06,3.64 88.26,4.53 29.02,0.88 58.7,4.09 87.93,4.71 29.11,0.61 59.17,2.38 88.03,4.44 29.28,2.09 59.57,1.85 88.64,4.35 29.06,2.5 58.9,2.4 87.92,4.86 14.2,1.2 29.69,1.8 44.01,2.52l43.78 3.16zm-610.9 -65.81c5.71,3 13.65,18.16 11.75,26.77 -7.55,3.06 -5.69,-1.53 -7.81,-9.47 -1.44,-5.38 -3.3,-11.7 -3.94,-17.3zm-1114.62 -93.79c9.63,-1.1 70.02,-1.29 79.35,-0.09 24.13,3.09 47.6,6.58 72.48,7.6 -0.06,3.83 -7.11,16.87 -9.14,20.7 -3.39,6.39 -6.2,13.55 -8.75,20.81 -3.41,9.7 -0.82,8.4 11.32,15.29 39.43,22.37 70.17,28.96 119.89,29.55 20.49,0.24 33.52,-1.76 52.22,-6.87 17.28,-4.73 49.1,-16.11 65.87,-23.69 17.66,-7.98 35.82,-14.4 54.1,-21.06 4.78,-1.74 7.1,-4.63 11.03,-4.46 2.37,7.24 0.93,6.49 -2.56,11.37 -8.69,12.14 -31.38,31.42 -45.16,38.77 -13.42,7.15 -32.06,16.33 -47.14,20.84l-25.3 9.11c-21.17,6.97 -35.48,9.62 -58.26,9.84 -35.76,0.35 -85.33,-1.01 -115.84,-20.24 -6.7,-4.22 -37.87,-22.18 -47.33,-19.11 -8.31,2.69 -24.66,30.92 -32.69,35.38 -4.83,-2.85 -16.51,-22.68 -20.3,-29.55 -13.18,-23.85 -25.25,-38.98 -36.32,-62.79 -2.72,-5.84 -10.91,-23.06 -15.25,-27.91 -0.34,-0.38 -1.24,-1.34 -1.45,-1.67 -0.75,-1.14 -0.34,-0.57 -0.77,-1.81zm1806.49 29.92c-0.14,-6.48 2.67,-16.48 4.08,-22.97 2.49,-11.46 3.75,-39.21 3.47,-51.33 -0.53,-22.54 -2.86,-22.41 5.96,-22.06 27.9,1.12 69.68,-0.49 95.46,14.57 5.37,3.14 11.47,7.1 12.81,14.44 3.58,19.46 2.21,28.35 -11.46,40.21 -25.43,22.05 -71.99,28.02 -110.31,27.13zm-1216.43 -99.28c3.81,7.76 0.93,17.56 -2.04,24.06 -1.49,3.25 -3.64,7.14 -5.74,9.48 -1.63,1.82 -6.77,5.86 -9.71,6.67l-0.98 0.54c-2.24,2.75 -10.57,5.06 -14.04,5.54 -16.32,2.27 -37.13,-12.43 -37.05,-24.78 -5.72,-6.73 -1.56,-29.05 10.06,-39.71 18.23,-16.71 53.37,-6.34 59.5,18.19zm-377.49 -12.59c-0.66,-13.4 2.86,-19.49 9.77,-26.79 14.22,-15.03 33.44,-18.4 49.94,-2.74 6.66,6.32 11.88,13.53 13.51,23.26 1.63,9.72 -3.88,20.02 -9.81,26.67 -10.52,11.79 -4.8,8.99 -24.1,12.7 -11.44,2.2 -20.69,-3.39 -27.4,-8.4 -7.09,-5.3 -11.3,-12.39 -11.91,-24.7zm763.27 -0.07c3.43,1.6 3.42,3.8 5,7.06 10.75,22.2 17.45,46.28 16.13,71.88 -0.65,12.49 -8.56,36.06 5.13,39.6 17.08,4.42 18.51,-17.1 22.42,-27.38 9.38,1.31 23.57,19.24 28.75,26.53 28.22,39.73 50.88,95.64 34.56,148.69 -1.22,3.98 -2.18,6.39 -3.57,9.98l-1.11 2.89c-0.08,0.18 -0.17,0.38 -0.25,0.56l-0.77 1.64c-0.75,1.59 -1.57,3.47 -2.34,4.88 -13.12,24.09 -33.58,42.75 -60.12,51.76 -6.92,2.35 -14.86,4.14 -22.93,5.26 -6.29,0.87 -12.74,0.3 -19.01,-0.61 -0.68,-0.1 -2.23,-0.27 -2.79,-0.38 -0.8,-0.16 -0.62,-0.09 -1.32,-0.3 -6.11,-1.83 -3.32,-10.89 -8.81,-28.78 -3.07,-10 -5.93,-16.67 -9.93,-25.26 -10.06,-21.59 -35.39,-52.79 -56.39,-66.78 -32.82,-21.87 -7.72,-13.14 -19.54,-65.16 -1.87,-8.24 -7,-18.46 -11.12,-24.07 -4.47,-6.1 -10.04,-16.08 -20.52,-9.41 -13.06,8.31 0.9,19.55 4.04,53.31 1,10.68 -0.94,20.79 -3.03,30.86 -3.5,16.89 -19.62,29.26 -11.72,36.44 14.19,12.91 19.99,-2.39 32.08,-9.6 7.01,1.83 22.1,15.55 28.74,21.48 18.13,16.21 32.43,38.05 39.92,62.44 13.55,44.15 -0.84,79.77 -36.58,106.32 -15.6,11.58 -50.62,22.76 -76.84,25.44 -58.58,5.98 -114.3,-8.23 -163.84,-36.74 -19.66,-11.32 -40.86,-30.13 -52.97,-48.59l-11.83 -20.15c-0.2,-0.41 -0.69,-1.4 -1.06,-2.13 -5.5,-10.83 -17.1,-43.8 -10.13,-53.78 4.55,0.05 7.66,5.07 9.51,7.96 6.82,0 7.62,-2.07 10.58,-5.52 3.69,-4.31 3.85,-6.38 2.89,-13.56 -3.37,-25.36 -16.76,-47.54 -35.06,-64.75 -16.62,-15.63 -37.33,-27.83 -54.87,-45.07 -5.84,-5.75 -10.56,-10.27 -16.52,-17.06 -7.18,-8.18 -14.12,-19.77 -19.81,-29.73 -10.27,-17.96 -16.31,-40.84 -18.7,-64.24 -2.17,-21.17 2.36,-40.46 6.48,-59.46 2.16,-9.97 9.56,-48.87 13.17,-54.01 3.35,2.06 5.99,7.44 7.97,10.48 28.37,43.66 27.12,22.02 14.25,49.36 -16.86,35.82 15.04,82.89 62.31,74.31 13.56,-2.46 20.37,-8.08 27.78,-15.39 21.51,-21.22 19.26,-55.67 -0.21,-76.49 -3.92,-4.19 -6.73,-6.14 -12.04,-9.43 -0.82,-6.03 4.76,-21.43 6.68,-27.55 2.86,-9.14 5.54,-17.88 8.23,-26.96 2.6,-8.78 14.27,-49.51 17.28,-53.08 5.5,3.86 10.34,9.63 15.75,13.93 5.7,4.53 11.59,8.68 17.45,12.95 11.09,8.09 25.82,16.06 38.93,21.84 14.66,6.46 27.45,10.79 46.38,14.32 26.65,4.96 56.3,1.86 81.63,-6.02l16.31 -6.04c8.61,-4.2 16.65,-8.37 24.69,-13.67 6.29,-4.15 12.08,-8.69 17.87,-13.35 17.41,-14.02 29.83,-30.31 42.34,-48.75 4.17,-6.15 7.11,-13.38 12.49,-18.58 2.57,0.73 19.62,12.14 24.39,14.63 13.7,7.16 12.44,5.16 14.68,24.46 3.49,30.09 3.26,60.75 -3.24,90.16 -2.67,12.09 -7.38,24.47 -13.74,35.02 -3.6,5.97 -9.17,14.29 -7.81,21.79 0.79,4.37 6.33,8.19 11.86,7.75 10.7,-0.86 13.63,-14.21 21.83,-18.13zm20.9 -140.62c3.54,0.01 7.99,2.12 10.56,2.91 3.64,1.11 7.81,2.24 11.27,3.08l70.99 13.82c0.52,1.72 -3.74,26.16 -4.32,31.32 -4.45,40.01 -4.72,65.95 -2.93,107.17 1.07,24.59 6.78,74.34 13.63,98.11 1.54,5.34 7.51,25.24 7.8,29.66l-19.59 -31.48c-3.77,-5.55 -7.4,-9.24 -11.29,-14.29 -3.29,-4.27 -7.51,-8.91 -12.16,-13.39 -17.53,-16.96 -11.03,-10.02 -28.78,-22.39 -7.12,-4.96 -7.32,-5.88 -9.06,-16.59 -2.32,-14.27 -6.25,-27.28 -10.89,-40.23 -5.65,-15.77 -11.79,-21.86 -18.07,-33.05 -4.78,-8.54 -3.22,-11.02 -1.28,-21.16 6.16,-32.13 7.26,-38.15 6.4,-70.35 -0.21,-7.79 -1.91,-15.44 -2.28,-23.13zm-451.79 114.29c-1.1,-0.76 -9.87,-14.72 -16.01,-21.55 -1.82,-2.02 -4.14,-4.77 -5.81,-7.01 -10.73,-14.42 -10.37,-11.55 -21.07,-30.12 -6.38,-11.07 -13.54,-21.15 -20.51,-30.64 -1.14,-1.56 -1.78,-2.24 -2.78,-3.57 -1.06,-1.41 -1.44,-2.18 -2.68,-3.77 -6.74,-8.67 -9.1,-12.15 -19.93,-18.41 -10.19,-5.89 -19.08,9.34 -30.3,17.59l-91.74 55.55c-6.9,3.98 -3.9,0.68 -5.03,-0.42 10.1,-2.76 20.11,-24.77 24.49,-37.08 6.25,-17.55 3.75,-29.61 21.58,-40.78 9.39,-5.88 31.43,-14.13 43.27,-18.27 14.99,-5.24 30.11,-11.43 44.84,-17.54 18.35,-7.61 70.08,-30.12 85.5,-38.42 25.09,-13.5 42.13,-26.43 69,-39.76 4.1,-2.04 7.34,-4.49 10.57,-5.82l-42.81 119.08c-6.71,20.48 -12.3,42.19 -17.93,62.82 -3.27,11.97 -14.84,54.74 -22.66,58.11zm629.84 -135.03c-0.91,-8.66 4.04,-48.39 5.03,-62.43 1.42,-20.24 4.79,-40.6 6.09,-60.7 1.3,-20.07 3.61,-41.48 5.87,-61.48l5.49 -61.66c12.24,-2.05 58.58,10.6 73.08,14.89l21.6 7.97c5.12,1.87 9.64,4.29 13.9,6.07 4.7,1.96 8.66,4.33 13.2,6.82 20.15,11.04 38.92,26.97 49.61,47.86l1.85 3.77c6.08,12.68 9.39,33.78 7.13,46.67 -6.45,36.76 -28.05,60.51 -60.43,77.01 -23.57,12.01 -44.65,19.12 -73.13,25.2 -12.39,2.65 -57.39,9.71 -69.29,10.03zm-486.69 -152.74c1.87,-5.63 38.87,-38.59 45.99,-45.07 1.56,-1.42 3.94,-3.67 5.92,-5.25 4.92,-3.92 19.87,-1.55 31.17,-1.39 15.7,0.23 30,1.22 45.79,0.25l-10.31 37.42c-4.13,14.66 -1.43,7.63 -16.55,15.41l-61.59 34.31c-7.58,4.53 -7.99,0.77 -17.59,-10.59l-22.84 -25.08zm716.71 -51.21l13.12 3.4c12.77,2.09 25.81,5.32 38.33,7.84 6.29,1.26 35.28,5.97 38.21,8.33 7.01,-0.26 21.61,3.54 29.28,4.78 20.11,3.25 42.2,5.41 62.54,7.91 42.24,5.19 28.28,-6.25 38.99,21.06 2.28,5.81 4.65,11.9 7.02,17.78 10.31,25.6 17.37,44.56 30.18,68.92 3.63,6.89 15.8,28.91 16.41,33.62l16.45 33.52c2.01,2.45 5.58,9.85 7.14,12.75 29.19,54.19 56.99,87.5 69.64,152.51 2.79,14.31 3.54,42.45 2.44,57.74 -0.42,5.92 -2.43,12.14 -3.07,17.83 -2.26,16.97 -5.37,27.59 -9.71,42.95 -2.23,7.91 -11.99,33.92 -14.94,38.11 -3.59,8.75 -7.75,17.78 -11.79,26.34 -1.79,3.8 -3.37,10.44 -7.12,11.11 -1.6,0.29 -13.96,-1.14 -17.04,-1.28 -72.05,-3.29 -144.19,-8.18 -216.25,-12.1 -72.43,-3.94 -144.87,-7.45 -217.41,-10.38 -17.66,-0.71 -35.75,-1.8 -53.54,-2.85 -17.66,-1.04 -35.88,-3 -53.58,-3.48 -16.26,-0.44 -10.73,0.37 -16.29,-11.68 -7.59,-16.47 -16.93,-47.31 -20.85,-65.64 -10.94,-51.08 -13.1,-105.48 -9.56,-158.1 1.4,-20.88 4.04,-30.42 6.16,-51.37 3.72,-0.88 24.49,-0.52 30.24,-0.69 30.65,-0.96 55.61,-3.57 85.97,-9.46 27.09,-5.25 58.58,-14.74 83.34,-26.91 3.64,-1.79 7.43,-4.29 11,-5.56l24.33 -15.06c8.44,-5.6 15.09,-12.13 21.17,-18.81 10.31,-11.34 18.49,-20.65 24.77,-35.17 1.02,-2.34 4.92,-13.22 5.79,-14.05l5.09 -22.27c0.89,-2.6 0.16,-0.83 0.87,-1.85 -0.56,-4.27 0.91,-13.55 0.88,-19.04 -0.03,-4.82 -1.41,-15.63 -0.9,-18.97 -0.78,-1.34 -0.12,1.31 -0.81,-1.84 -0.16,-0.73 -0.17,-1.59 -0.22,-2.34 -1.55,-10.94 -8.22,-29.8 -12.51,-40.28 -1.83,-4.47 -5.1,-7.71 -6.66,-12.17 -1.62,-2.35 -2.99,-3.98 -4.02,-7.08l6.93 1.89zm-734.64 85.99c2.07,0.99 10.21,11.42 12.3,13.99 6.29,7.71 17.87,20.08 26.41,24.74 3.97,2.17 12.74,6.62 19.03,4.76 11.43,-3.37 20.34,-15.47 29.22,-21.99l21.8 -13.36c4.46,-2.53 23.5,-14.42 27.74,-12.92 4.6,1.63 7.93,11.25 16.37,9.19 10.43,-2.54 9.2,-27.12 12.02,-39.29 1.77,-7.63 3.09,-13.42 5.26,-20.32l12.4 -29.96 12.38 -22.01c16.71,-24.53 32.37,-40.86 60.37,-54.75 26.08,-12.93 69.14,-18.77 89.19,3.57 4.08,4.54 7.48,9.14 10.51,15.07 19.59,38.44 3.44,89.69 -15.73,120.51 -13.52,21.74 -27.87,39.16 -49.49,52.81 -5.22,3.3 -10.35,5.92 -16.9,8.66 -2.9,1.21 -6.03,2.68 -9.19,3.56 -3.35,0.93 -7.23,1.17 -9.66,3.17 -3.12,2.57 -9.41,17.63 -11,21.02 -13.47,28.7 -30.39,59.08 -54.59,79.66 -18.03,15.33 -32.66,25.73 -57.12,32.45 -61.72,16.95 -107.54,-3.82 -154,-39.27 -10.42,-7.95 -11.87,-10.97 -19.38,-18.98 -6.72,-7.17 4.75,-30.04 8.02,-38.36l7.13 -18.47c1.49,-3.4 2.73,-5.4 4.11,-8.63 6.78,-15.94 18.27,-38.71 22.82,-54.85zm364.71 -177.76c18.01,-6.98 46.7,-3.42 64.37,5.18l3.73 1.84c0.98,0.5 2.47,1.34 3.57,2.03 23.9,14.78 8.78,31.36 53.84,34.1l-11.66 127.12c-2.79,20.84 -3.76,42.42 -6.34,63.3 -0.77,6.19 -4.7,58.37 -7.21,62.46 -12.68,2.61 -85.83,-11.51 -99.53,-15.45 -7.78,-2.24 -14.81,-4.22 -22.15,-6.61 -13,-4.24 -19.09,-7.23 -29.95,-12.38l-19.82 -10.58c-3.08,-1.74 -7.32,-3.54 -9.71,-5.7 0.98,-2.16 0.43,-1.46 2.81,-3.03l11.55 -6.01c5.44,-3.1 9.56,-6.08 14.62,-9.36 23.03,-14.94 51.58,-52.65 63.29,-80.58 14.75,-35.19 24.61,-77.89 7.52,-117.26 -2.52,-5.8 -5.69,-9.99 -8.9,-15.1 -1.83,-2.92 -3.36,-4.04 -5.23,-6.76l-4.81 -7.18zm-2005.64 71.83c-1.98,-1.59 -1.67,-0.66 -3.44,-6.99 -2.66,-9.52 -1.58,-8.06 -2.81,-16.38 -0.55,-3.72 -0.89,-6.29 1,-8.38 -0.67,-5.94 5.46,-13.47 7.9,-15.96l13.31 -11.49c9.02,-7.94 19.16,-14.8 35.63,-14.4 -2.03,7.04 -8.85,12.85 -7.7,23.22 1.05,9.46 10.38,10.47 15.29,16 6.22,6.99 6.83,10.17 15.56,15.57 7.53,4.66 12.56,8.14 23.11,6.76l-1.32 -0.52c-7.08,-1.78 -3.13,1.32 -13.03,-3.81 -10.69,-5.55 -12.02,-7.9 -20.43,-16.29 -3.86,-3.84 -5.29,-4.78 -10.16,-8.21 -9.21,-6.49 -9.02,-14.96 -3.1,-25.17 3.06,-5.28 4.84,-6.93 12.54,-6.16 5.46,0.55 13.17,0.35 17.6,1.85 1.16,9.58 -13.84,30.73 -12.81,33.14 4.89,-6.83 8.44,-18.3 13.59,-25.16 5.34,0.84 12.09,10.91 15.62,15.62 9.71,12.95 7.5,18.37 6.24,31.06 -1.02,10.41 0.69,6.05 -5.43,18.54 -5.4,11.01 -7.67,10.62 -14.24,17.75 -11.39,12.35 -40.29,14.12 -50.9,10.64 -8.69,-2.84 -15.11,-7.01 -20.11,-11.96 -2.45,-2.43 -12.32,-14.32 -11.93,-19.25zm1752.5 -13.01c0.8,-1.63 4.1,-3.05 9.89,-9.73 13.35,-15.38 13.01,-12.44 28.39,-32.36l34.87 -46.65c17.01,-23.61 15.69,-24.17 34.57,-46.97 1.5,-1.81 2.75,-3.17 4.42,-5.17 0.94,-1.12 1.11,-1.63 2.06,-2.78 1.08,-1.31 1.67,-1.61 2.72,-2.84 1.6,-1.86 5.82,-9.19 9.87,-10.93 2.98,-1.28 33.26,-1.03 39.75,-1.36 1.97,-2.57 -0.01,-2.29 2.89,-3.5 4.21,-1.75 9.74,2.98 14.76,6.09 5.5,3.4 11.04,7.19 16.45,10.76 4.23,2.79 27.94,20.13 31.19,24.13 -0.49,3.2 -6.37,9.41 -8.68,13.04 -19.65,30.78 -2.41,16.83 -44.34,22.7 -47.54,6.66 -82.69,31.7 -113.04,65.36 -3.39,3.76 -6.68,8.33 -10.03,12.36 -2.74,3.3 -7.53,9.45 -12.67,9.87 -6.64,0.55 -35.89,-1.34 -43.07,-2.03zm145.34 -198.54c4.47,1.34 6.86,7.76 2.1,9.04 -4.87,1.3 -5.68,-5.73 -2.1,-9.04zm-1778.55 148.4c5.77,-3.81 9.64,-1.18 29.74,-18.09 1.83,-1.54 2.12,-2.52 3.87,-4.09 1.64,-1.47 2.89,-2.09 4.56,-3.48l69.37 -60.1c11.13,-11.28 31.83,-27.87 42.88,-37.88 12.05,-10.93 10.62,-10.67 26.23,-22.54 12.44,-9.46 23.79,-19.75 34.99,-29.74 21.53,-19.21 47.22,-36.87 70.79,-58.7 8.5,-7.87 26.06,-21.1 36.02,-27.95 8.77,-6.03 19.15,-13.95 26.7,-21.25l25.87 -22.9c14.59,-12.4 37.63,-36.28 54.54,-42.97 11.93,-4.72 41.47,5.92 52.15,10.06 6.13,2.37 30.01,12.89 34.58,13.41 6.64,0.75 7.81,-0.24 13.91,2.84 21.88,11.03 12.49,6.7 33.45,14.59 12.2,4.59 21.93,9.76 33.44,15.33 6.72,3.25 15.57,7.73 21.1,11.57 0.52,4 -2.99,28.71 -3.8,34.61 -8.13,58.69 -3.75,121.43 7.65,179.23 4.17,21.15 12.09,40.62 19.61,59.3 3.63,9.02 7.39,19.43 10.14,28.97 4.58,15.88 2.04,15.96 -4.99,28.78 -4.77,8.7 -9.58,16.02 -15,24.21 -9.14,13.81 -25.3,32.65 -33.56,45.6 -8.8,13.78 -8.95,16.4 -22.01,17.13 -11.83,0.66 -25.92,-0.32 -37.61,-1.55 -12.34,-1.3 -24.29,-1.79 -36.39,-3.49 -22.89,-3.22 -45.22,-6.81 -67.78,-10.7 -10.45,-1.8 -23.34,-4.83 -33.42,-5.65 -11.8,-0.96 -23.24,-2.59 -34.32,-4.84 -43.65,-8.85 -89.23,-14.69 -132.09,-25.48 -43.02,-10.83 -86.39,-17.27 -128.79,-28.66 -13.74,-3.69 -51.92,-12.65 -61.9,-16.47 -4.58,-1.75 -8.57,-4.02 -13.34,-5.83 -4.84,-1.83 -11.49,-2.67 -14.74,-5.33 -3.6,-2.95 -3.47,-8.85 -5.58,-14.52 -1.58,-4.24 -5.8,-11.02 -6.28,-13.42zm1672.22 -523.75c-3.32,0.28 -18.25,-3.61 -23.54,-4.35 -18.14,-2.53 -32.38,-5.49 -50.04,-0.37 -6.14,1.78 -14.88,6.8 -15.25,13.64 2.21,13.43 71.03,18.01 84.6,20.2 0.33,6.88 -1.27,20.89 -1.64,28.78 -0.49,10.71 -0.9,21.03 -0.84,31.77l2.49 61.38c-4.6,1.02 -16.46,0.91 -22.09,1.3 -6.8,0.47 -13.61,1.55 -20.38,2.48 -10.64,1.45 -31.59,5.31 -30.65,16.24 1.28,14.9 26.06,10.7 35.79,10.22 5.74,-0.29 41.82,-2.63 43.15,-2.24 2.28,1.32 8.36,27.29 9.56,31.36 6.67,22.44 21.47,60.29 33.94,80.38 1.47,2.37 3.19,3.67 3.65,6.73 -6.82,3.43 -16.26,5.78 -24.32,8.44 -15.44,5.09 -59.92,20.02 -59.7,39.11 14.37,11.24 22.2,6.94 38.09,0.85l64.68 -22.15c7.38,21.08 16.17,9.67 4.34,35.22l-14.05 29.12c-6.57,12.71 -13.97,26.37 -21.62,38.34 -13.31,20.82 -27.35,41.35 -43.68,59.43l-37.84 39.71c-2.17,2.15 -3.83,4.33 -6.15,6.61l-59.17 56.77c-4.87,4.76 -9.63,8.25 -13.38,12.21 -8.72,9.19 -16.44,17.93 -26.65,25.32 -5.24,3.79 -9.56,7.02 -14.61,10.96 -19.53,15.26 -40.67,28.03 -61.06,42.03 -10.6,7.28 -21.45,12.94 -32.62,19.38l-33.51 18.43c-34.62,18.06 -70.22,35.09 -107.08,48 -23.41,8.2 -54.27,19.29 -78.85,24.2 -23.03,4.6 -74.24,3.69 -98.07,0.76 -62.92,-7.71 -133.39,-34.2 -180.47,-77.92 -9.05,-8.4 -17.43,-17.25 -25.67,-26.3 -16.74,-18.39 -28.92,-42.01 -37.84,-65.25 -33.68,-87.77 -38.81,-172.4 -10.25,-261.84 8.72,-27.31 19.49,-50.27 31.2,-71.95 5.61,-10.38 20.87,-39.84 31.72,-45.02 5.88,-2.8 12.06,-4.95 18.75,-7.61 24.49,-9.75 51.67,-18.49 75.07,-28.07 12.06,-4.94 25.5,-8.7 38.03,-13.13 13.08,-4.63 25.28,-8.5 38.74,-13.19l43.66 -13.93c15.83,-5.02 65.52,-17.89 74.69,-22.81 5.29,-2.83 6.74,-11.63 8.33,-17.29 2.07,-7.35 3.88,-13.27 5.63,-20.69 6.58,-27.92 13.6,-54.86 20.48,-82.66 4.5,-18.2 31.94,-132.25 40.94,-138.94 4.1,-3.05 13.36,-6.38 18.14,-8.21 53.35,-20.31 120.34,-30.9 177.5,-29.84 46.22,0.86 88.35,9.03 130.04,24.48 6.61,2.45 11.85,4.76 18.14,7.43 23.62,10.04 44.6,24.08 64.79,39.19l14.68 11.66 -10.11 35.12c-2.34,7.19 -6.98,32.05 -9.69,36.53zm1198.36 -56.64c1.72,-3.66 4.38,-4.05 7.15,-7.23 8.88,-10.21 6.82,-5.65 19.5,-22.07 10.25,-13.28 15.41,-32.32 18.9,-37.08 3.87,0.48 9.68,5.5 11.4,7.84 18.04,24.61 -3.44,57.11 -21.88,60.11 -7.01,1.14 -30.04,1.84 -35.07,-1.57zm-1234.98 -91.71c2.53,0.83 2.1,0.97 3.28,2.52l-3.28 -2.52zm1134.48 -123.55c14.8,-1.62 32.46,1.35 45.05,5.98 25.5,9.37 42.25,25.53 55.41,49.44 4.4,8 5.99,9.36 6.18,19.96 0.12,6.74 9.07,22.16 1.4,45 -7,20.83 -3.51,29.61 -25.82,52.63 -15.81,16.31 -36.9,32.19 -69.63,35.19 -16.96,1.55 -31.68,0.4 -45.67,-5.64 -24.07,-10.38 -44.08,-27.39 -54.98,-49.8 -15.93,-32.76 -13.65,-74.33 6.11,-103.94 11.12,-16.68 22.49,-25.75 41.76,-36.62 13.25,-7.47 23.04,-10.33 40.2,-12.2zm325.01 129.17c7.14,42.86 -17.05,85.36 -40.15,116.16 -29.58,39.43 -74.88,76.06 -123.46,88.34 -13.55,3.43 -34.14,2.65 -47.56,-0.69 -13.31,-3.31 -26.19,-11.98 -34.12,-18.62 -13.82,-11.59 -37.27,-52.07 -36.77,-68.72 4.28,-3.4 9.69,-2.63 15.32,-3.84 6.89,-1.49 8.26,-5.42 13.42,-6.15l13.39 7.79c5.29,2.57 9.04,4.17 14.87,5.95 21.38,6.53 48.26,1.94 66.64,-10.41 4.84,-3.26 16.9,-15.51 20.25,-20.49 11.88,-17.67 15.63,-42.64 7.35,-65.79 -8.92,-24.94 -24.07,-29.72 -40.04,-42.07 -0.66,-8.93 0.04,-17.95 -0.7,-27.19 -0.5,-6.32 -0.62,-6.3 5.84,-7.01 51.96,-5.7 97.28,-2.59 142.04,23.5 8.09,4.72 9.19,6.9 14.4,12.01 7,6.88 7.15,4.42 9.28,17.23zm-1497.45 -36.98l9.51 7.47c3.18,2.81 6.91,5.46 8.99,8.96l15.15 10.77c5.48,3.71 3.34,1.73 4.3,4.15 -3.04,-0.56 -17.86,-10.3 -19.34,-12.39 -3.21,-1.09 -14.67,-7.9 -16.23,-10.04 -1.86,0 -3.95,-0.36 -5.27,0.5 -1.42,0.92 -0.5,-0 2.02,1.06 0.22,0.09 0.52,0.24 0.71,0.32 0.19,0.08 0.52,0.18 0.74,0.34 -3.76,2.92 -4.6,4.75 -10.73,4.79 -3.93,-9.22 -83.23,-21.05 -97.47,-22.47 -18.79,-1.88 -39.21,-0.1 -58.13,0.75 -42.09,1.9 -63.21,5.07 -103.7,16.78 -21.74,6.29 -73.73,16.58 -86.31,33.45 -5.73,7.68 -13.61,32.89 -17.07,43.6 -5.85,18.06 -19.66,74.51 -24.6,95.29 -3.78,15.89 -8.44,31.67 -12.41,47.59 -3.96,15.89 -7.79,32.99 -12.3,48.46 -1.13,3.9 -3.07,7.12 -4.31,10.11 -1.81,4.38 -1.67,7.23 -6.1,9.13 -8.12,3.47 -57.52,17.04 -70.03,21.16 -14.81,4.87 -30.19,10.61 -44.22,15.69 -15,5.43 -30.79,10.28 -45.63,15.1 -15.02,4.88 -29.01,11.17 -44.14,15.85 -15.32,4.74 -29.63,9.75 -45.07,14.89 -36.16,12.03 -44.57,21.13 -64.32,56.42 -23.84,42.6 -20.36,38.74 -37.19,83.54 -17.62,46.9 -26.32,106.51 -21.52,157.35 2.3,24.3 3.38,41.6 8.35,66.09l6.5 23.58c6.27,21.05 9.53,34.88 19.08,56.98 7.17,16.59 23.13,42.32 34.33,56 5.06,6.18 9.34,10.46 14.18,16.19 19.61,23.27 24.9,26.55 46.01,44.37 3.28,2.77 4.6,4.38 8.19,6.98 2.79,2.01 6.77,3.79 8.39,7.06 4.05,1.21 7.87,4.25 12.57,6.35 11.38,5.07 42.02,13.36 44.27,14.95 -7.82,2.6 -56.9,-16.61 -60.16,-16.64 -19.91,-6.33 -37.94,-10.88 -54.55,-19.07 -22.22,-10.95 -56.46,-37.27 -73.27,-55.38 -21.1,-22.73 -20.93,-18.84 -43.61,-48.29 -10.32,-13.41 -20.7,-27.55 -30.73,-42.02 -27.39,-39.53 -59.23,-102.14 -70.76,-149.86 -21.36,-88.39 -19.1,-170.85 4.14,-258.84 6.96,-26.35 29.48,-81.54 42.09,-105.02l54.83 -92.27c5.4,-7.91 11.08,-11.97 17.21,-18.77 17.53,-19.43 18.8,-24.82 32.62,-40.93 11.28,-13.14 23.85,-25.4 36.14,-37.44 8.55,-8.38 21.36,-17.42 29.97,-25.2 16.38,-14.8 53.56,-44.6 73.05,-54.86 16.19,-8.52 30.87,-17.82 47.72,-25.82 32.96,-15.64 66.84,-31.19 104.85,-42.3 84.29,-24.65 165.61,-40.76 256.86,-36.81 40.28,1.74 86.37,10.94 122.21,25.1 8.78,3.47 16.61,8.54 24.77,12.12 10.08,4.42 3.08,-1.53 26.18,10.51 8.04,4.19 16.29,8.16 24.03,12.75 5.53,3.28 17.73,10.3 21.51,15.02 -1.07,2.79 -3.9,4.24 -5.98,6.56 -1.99,2.21 -1.32,-0.73 -1.47,2.96 5.32,2.41 6.97,-3.08 10.19,-5.03 3.4,0.92 6.1,4.6 10.87,8.55l4.08 3.8zm1102.55 -114.72c-1.99,2.96 -7.15,5.38 -10.3,7.58 -6.94,4.85 -21.49,19.92 -26.8,25.95 -5.66,6.44 -9.6,12.33 -14.64,20.51 -2.51,4.08 -9.13,21.19 -11.34,22.71 -1.81,-1.27 -1.59,-1.43 -3.17,-2.82 -9.63,-8.45 -12.99,-10.88 -16.53,-28.26 -2.95,-14.51 3.74,-30.73 10.54,-39.28 9.47,-11.92 13.12,-15.11 31.4,-19.7 6.8,-1.71 15.85,-3.03 22.62,-1.63 4.37,0.9 14.53,3.85 17.68,7.57 2.89,0.27 4.91,1.97 6.28,4.53 -2.09,1.89 -3.15,2.63 -5.75,2.84zm-100.38 -11.2c-7.52,9.66 -15.28,28.86 -16.26,44.31 -0.82,12.91 5.56,39.88 11.44,48.59 4.31,6.38 9.08,9.64 14.98,15.36 3.18,3.08 5.13,4.97 7.99,7.24 14.91,11.87 10.71,4.7 9.49,17.53 -1.95,20.35 4.21,34.54 3.92,40.64 -9.93,2.73 -52.35,-0.04 -64.07,-1.79 -18.43,-2.76 -37.71,-7.36 -52.8,-14.46 -13.37,-6.29 -29.69,-18.97 -35.46,-31.78 -25.23,-56.02 -10.31,-111.41 15.71,-160.52 8.68,-16.39 28.58,-46.4 41.65,-59.07 3.83,-3.72 12.72,-15 16.45,-16.72 2.65,-4.19 22.44,-20.42 28.57,-24.61 22.07,-15.1 46.56,-26.81 74.86,-29.15 41.64,-3.44 73.4,31.29 92.83,63.22 5.65,9.28 13.95,23 17.32,34.66 3.87,13.39 8.94,22.28 10.66,28.42 1.44,5.16 0.25,7.39 0.73,12.59 2.88,1.4 7.1,7.86 6.95,12.98 -2.38,1.43 -7.54,2.78 -10.71,2.36 -2.49,1.5 -3.6,0.72 -7.47,0.72 -3.04,0.01 -4.49,0.5 -7.11,1.12 -3.43,0.81 -9.75,1.78 -13.51,1.4 -10.88,-1.09 -23.03,-25.85 -61.08,-29.8 -18.89,-1.96 -38.03,0.51 -53.05,7.9 -8.34,4.1 -12.03,6.94 -17.91,12.43 -4.69,4.38 -10.37,10.16 -14.14,16.43zm212.85 -63.12c4.09,-2.45 34.19,-8.36 41.51,-9.63 48.04,-8.4 89.98,-10.98 138,-2.21 11.5,2.1 29.27,5.65 35.22,16.04 11.75,20.54 14.92,63.1 13.56,87.26 -0.52,9.33 -2.2,39.03 -4.98,45.36 -4.39,-0.58 -9.35,-2.4 -14.24,-3.07 -5.08,-0.7 -10.44,-1.4 -15.51,-2.11 -18.1,-2.54 -49.19,-2.16 -67.74,-0.96 -10.76,0.7 -21.51,3.04 -31.95,3.1 -10.16,-23.79 -31.91,-44.98 -53.08,-58 -9.61,-5.91 -22.68,-10.94 -23.66,-11.6 -0.11,-0.08 -0.38,-0.15 -0.45,-0.42l-8.27 -33.11c-1.44,-5.53 -9.19,-27.19 -8.42,-30.66zm-43.53 347.24c4.34,11.08 3.33,17.1 11.45,34.87 14.09,30.85 33.62,59.01 63.34,75.75 34.55,19.46 72.32,21.34 112.89,8.45l19.25 -7.13c0.16,-0.08 0.37,-0.19 0.53,-0.27l5.33 -2.68c3.22,-1.65 4.74,-3.65 8.19,-3.08 0.76,5.68 1.17,12.41 1.8,18.12 2.09,18.99 4.19,37.28 4.41,56.67 0.13,11.47 -2.17,68.27 -6.65,74.44 -4.33,0.45 -24.78,-2.13 -31.02,-2.64 -19.62,-1.58 -59,-3.78 -75.8,6.84 -3.77,2.38 -6.36,5.06 -6.56,10.88 14.36,14.44 95.41,9.46 109.27,14.41 1.96,9.44 -17.88,69.92 -23.09,83.9l-10.37 25.62c-3.39,-0.08 -6.07,-1.24 -9,-2.19l-27.95 -7.22c-7.33,-1.51 -12.76,-2.52 -20.64,-2.2 -7.99,0.32 -12.49,2.82 -12.76,10.81 5.96,7.67 15.45,12.28 25.93,15.67l32.34 9.91c-1.51,5.9 -8.18,16.24 -11.52,21.98 -7.69,13.23 -18.29,27.94 -27.37,39.8 -2.66,3.48 -12.44,16.24 -16.19,18.08 -3.44,0.33 -30.4,-17.12 -35.91,-19.97 -8.19,-4.24 -30.29,-15.69 -43.51,-12.08 -8.86,17.09 19.3,29.64 31.12,36.45 8.6,4.95 19.93,9.95 27.19,16.77 -3.77,4.98 -18.29,16.17 -24.58,20.39 -24.78,16.6 -45.92,30.07 -73.69,41.4l-16.86 6.36c-82.47,29.15 -152.83,34.7 -242.14,32.72 -73.55,-1.63 -170.59,-20.14 -239.72,-36.21 -53.09,-12.34 -127.9,-32.39 -178.57,-50.87l-66.04 -25.96c-14.17,-6.1 -32.29,-14.09 -46.66,-22.1 -0.48,-0.27 -1.14,-0.67 -1.52,-0.88 -19.04,-10.6 -38.66,-20.62 -56.89,-32.61 -15.66,-10.3 -25.57,-16.62 -41.29,-28.26 -41.01,-30.37 -59.25,-52.48 -90.2,-87.32 -1.53,-1.72 -1.96,-1.86 -1.95,-3.61 5.08,-3.34 72,-8.07 59.03,-28.64 -6.91,-10.95 -44.32,-3.45 -56.81,-0.35 -4.79,1.19 -14.71,3.91 -19.34,3.77l-29.93 -58c-0.07,-0.19 -0.15,-0.4 -0.22,-0.58 -5.42,-14.17 -14.05,-34.19 -14.93,-49.57 12.39,-0.51 67.28,4.38 71.09,-6.47 5.99,-17.03 -22.34,-17.8 -35.16,-19.15 -6.72,-0.71 -13.82,-1.26 -20.48,-1.68 -7.07,-0.44 -15.43,0.09 -22.09,-0.71 -6.64,-31.75 -4.95,-78.46 -1.78,-111.46 11.76,-0.1 38.04,8.74 50.9,11.22 13.16,2.54 41.47,14.7 47.67,-0.98 -1.82,-7.84 -11.75,-13.33 -17.29,-16.67 -21.12,-12.72 -70.78,-21.25 -76.42,-24.9 0,-5.37 2.79,-13.39 4.23,-18.77 4.87,-18.1 9.32,-37.1 15.69,-54.69 2.2,-6.08 4.08,-10.86 6.24,-16.91 12.87,-36.13 42.86,-92.92 64.15,-123.73 3.25,-4.7 6.44,-9.12 9.85,-14.14 6.74,-9.94 14.57,-16.67 19.13,-28.01 3.69,-9.18 2.97,-8.55 2.1,-19.57 -1.78,-22.45 -4.24,-43.72 -2.64,-66.48 3.14,-44.62 9.88,-85.69 27.19,-125.54 1.45,-3.33 2.11,-5.39 3.6,-8.4 15.21,-30.74 24.06,-45.15 46.81,-71.46 4.88,-5.65 17.33,-18.12 25.3,-21.14 20.3,-7.7 88.52,20.51 109.74,29.39 10.47,4.38 21.36,10.21 31.59,15.62 10.43,5.51 20.48,11.43 30.15,16.98 34.16,19.61 51.62,35.68 80.55,60.17 9.35,7.91 16.26,13.01 32.96,13.98 15.14,0.88 31.05,0.26 46.39,0.91 42.65,1.8 85.91,6.92 127.7,14 26.35,4.46 53.38,11.21 78.87,15.29 -0.6,3.79 -2.59,5.91 -4.17,8.54 -1.53,2.54 -2.76,4.82 -4.48,7.51l-13.17 22.81c-0.63,1.21 -1.39,2.62 -1.94,3.66l-5.06 10.12c-0.11,0.22 -0.41,0.87 -0.52,1.09l-1.59 3.19c-11.53,23.25 -20.25,59.05 -21.81,84.48 -1.93,31.43 2.33,58.31 13.1,82.97 9.78,22.42 25.51,41.51 44.92,52.64 8.62,4.94 18.39,9.81 27.95,13.6 14.72,5.84 27.15,7.68 44.26,11 12.95,2.51 30.01,3.47 43.69,3.82 7.83,0.2 15.83,0.26 23.65,-0.1 7.06,-0.32 16.5,-1.95 22.8,-1.98 5.52,-0.02 9.03,7.83 12.15,11.78 7.12,9.02 14.28,16.94 23.17,24.82 13.57,12.03 29.57,20.61 46.93,26.6 8.89,3.07 19.54,5.4 29.27,6.75 5.27,0.73 7.64,0.07 12.43,0.39zm-1811.27 -195.02c-1.61,4.59 0.61,-0.18 -1.27,2.04 -2.29,2.71 -32.27,21.72 -40.64,22.22 -0.94,0.06 -3.68,-0.12 -4.53,-0.39 -3.94,-1.21 -1.87,-0.74 -3,-1.8 -7.43,-0.62 -19.31,-7.1 -25.97,-10.14 -17.11,-7.83 -40.16,-14.38 -45.17,-28.45 -2.53,-7.12 -9.15,-48.86 -11.78,-60.93 -6.5,-29.91 -13.1,-61.43 -16.36,-92.12 -1.06,-10 -3.46,-21.99 -5.58,-31.38 -6.33,-28.1 -13.64,-65.01 -16.51,-93.19 -2.14,-21.01 -7.12,-41.77 -10.01,-62.5 -2.34,-16.8 0.76,-12.11 -4.39,-32.51l-3.57 -33.55 37.93 13.5c6.1,2.55 11.29,5.45 17.45,8.16 15.39,6.76 38,17.07 52.55,22.63 34.62,13.22 73.18,29.36 105.87,44.48 24.2,11.2 43.11,18.66 68.66,31.24 11.51,5.67 21.44,11.13 34.18,16.18 30.5,12.08 69.32,35.24 98.67,51.62 11.1,6.19 21.74,12.47 31.2,19.19 9.36,6.65 13.97,20.11 16.51,33.18 3.33,17.18 10.42,74.83 8.12,91.1l-78.12 16.23c-48.38,11.8 -96.46,25.44 -141.45,45.59 -11.28,5.05 -21.94,9.22 -32.71,14.48 -4.47,2.18 -28.69,15.03 -30.1,15.14zm-273.71 -504.65c2.56,-3.81 4.21,-7.06 8.47,-8.5 2.85,-4.41 15.07,-10.47 21.71,-13.09 4.77,-1.88 9.1,-2.78 14.55,-3.32 5.64,-0.55 10.48,1.4 14.72,2.25 2.16,0.72 0.22,-0.01 1.73,0.71 16.98,8.12 31.36,23.68 28.39,44.7 -1.22,8.64 0.69,13.91 -7.13,21.5 -1.83,1.77 -3.01,2.95 -4.88,4.75l-7.19 7.19c-3.84,3.67 -6.36,7.88 -15.99,7.86 4.62,-9.51 10.37,-17 16.54,-24.88 2.24,-2.85 4.21,-4.34 6.37,-6.83 -8.28,0.65 -10.61,13.32 -16.69,16.49 -5.75,0.53 -13.58,-10.23 -22.69,-10.68 3.89,1 17.32,9.74 20.78,12.42 -0.98,2.83 -3.8,11.42 -5.99,13.49 -7.85,7.45 -33.08,-4.64 -40.75,-11.03 -7.85,-6.53 -11.15,-9.82 -15.75,-21.98 -2.14,-5.64 -2.12,-22.61 1.79,-28.68l2.01 -2.37zm48.71 92.94c1.93,10.13 2.36,22.42 4.26,33.26 1.94,11.09 2.65,21.86 4.77,32.85l10.34 65.73c1.09,9.53 3.69,22.29 5.57,31.96 2.05,10.52 3.88,22.28 5.47,32.88 7.93,52.97 18.73,108.01 28.59,160.83 3.16,16.91 7.88,47.64 13.3,62.67 4.67,12.97 20.05,19.45 31.62,25.13 10.1,4.96 32.58,14.26 38.23,19.27 -1.39,2.23 -2.22,2.67 -4.16,4.36 -26.33,22.96 -50.97,42.62 -75.27,68.62 -3.21,3.43 -6.2,6.33 -9.48,9.7 -19.48,20 -34.78,41.3 -51.86,63.24 -13.97,17.94 -26.81,38.45 -37.87,58.07l-20.49 37.07c-6.95,13.03 -12.35,25.59 -18.31,39.31 -3.99,9.19 -8.19,17.54 -11.32,27.02l-15.13 42.4c-1.04,3.08 -3.77,11.21 -5.37,13.84 -4.89,-0.19 -86.1,-33.33 -97.98,-37.94 -16.39,-6.35 -33.78,-11.91 -50.76,-17.19 -9.54,-2.96 -44.21,-15.13 -52.7,-14.98 -12.09,0.2 -47.5,32.09 -59.92,41.39 -26.07,19.53 -49.77,40.85 -75.35,61.31 -9.73,7.78 -17.93,16.22 -27.64,23.54 -15.1,11.37 -30.96,26.23 -46.01,38.75 -6.6,5.49 -12.05,10.13 -18.51,15.8 -12.37,10.85 -23.74,21.29 -36.59,31.41 -13.12,10.33 -24.01,21.32 -37.04,31.7l-31.82 27.36c-13.82,12.01 -28.19,22.89 -41.29,35.45 -14.46,13.87 -30.45,25.87 -45.58,39.11 -9.07,7.94 -19.48,15.57 -26.81,24.96 -5.67,-0.73 -6.59,-3.61 -10.55,-5.86 -10.58,-6.01 -26.75,-9.07 -39.34,-9.03 -53.97,0.15 -95.44,60.97 -72.16,109.33 14.98,31.12 38.92,51.8 77.75,51.1 19.79,-0.36 35.64,-8.09 46.81,-17.25 11.71,-9.61 22.41,-21.99 26.68,-38.1 4.32,0.13 16.56,4.75 21.1,6.22 51.25,16.58 143.89,37.87 197.59,48.56 14.84,2.96 31.46,5.69 45.92,9.32 15.8,3.97 50.56,9.73 68.38,13.11 39.13,7.43 78.58,13.35 118.12,19.25 32.62,4.87 65.2,9.6 98.22,11.32 41.01,2.14 43.69,-0.07 64.18,-29.06l6.17 -8.22c3.71,-5.43 7.8,-9.95 11.71,-15.5 11.23,-15.96 23.77,-31.37 35.07,-47.11 3.36,1.66 7.56,10.34 9.56,14.11 12.6,23.7 32.61,49.9 48.43,71.47 9.25,12.61 22.87,26.92 33.99,37.98 12.04,11.97 24.2,23.64 37.35,34.59 17.5,14.57 36.56,25.87 57.98,37.95 32.24,18.18 68.32,30.61 104.6,38.52 42.61,9.28 87.98,13.17 131.91,9.71 15.54,-1.22 49.55,-3.77 64.33,-7.38 4.86,-1.19 15.95,-2.93 21.13,-2.27 -1.3,7.68 -7.63,18.01 -10.67,23.97l-9.59 16.75c-6.5,11.44 -16.68,27.56 -25.27,37.08 -1.62,1.8 -2.51,2.82 -3.92,4.85 -1.36,1.97 -2.05,3.61 -3.6,5.74 -11.42,-0.84 -22.05,-10.74 -39.58,-6.5 -17.02,4.11 -33.35,15.94 -39.76,31.31 -10.66,25.56 -2.57,52 17.87,67.66 28.64,21.95 77.64,9.16 87,-34.74 4.23,-19.85 -8.29,-17.44 8.56,-26.58l68.49 -37.82c12.6,-7.6 24.72,-15.08 36.77,-23.2 6.2,-4.18 31.07,-22.01 37.73,-22.73 1.53,24.37 -8.98,66.98 -14.41,92.41 -2.11,9.87 -4.72,19.67 -6.04,29.84 -1.62,12.52 -2.38,20.38 -1.68,33.56 1.53,28.92 12.99,30.62 -18.45,47.15 -7.18,3.78 -15.22,9.2 -22.86,13.15 -64.32,33.25 -151.69,52.44 -221.49,16.14 -11.79,-6.13 -6.08,-1.53 8.64,-32.36 4.59,-9.6 13.64,-22.9 0.68,-29.74 -9.66,-5.1 -143.67,-12.63 -164.86,-13.97 -8.71,-0.55 -36.44,-2.62 -43.11,-0.52 -3.81,1.2 -10.53,6.31 -9.91,11.87 1.17,10.51 67.63,118.05 74.18,128.75 5.81,9.49 27.49,50.33 36.74,52.99 8.51,2.44 15.03,-9.3 18.98,-14.45 2.03,-2.65 2.9,-3.69 4.78,-6.37 3.2,-4.58 6.1,-8.1 9.62,-12.77 14.14,-18.75 4.98,-15.14 39.75,1.02l10.87 4.29c6.59,2.47 14.64,5.06 21.83,6.95 60.67,15.94 120.4,12.24 179.27,-8.38l57.74 -26.21c21.27,-11.64 45.95,-34.27 51.1,-36.91l23.08 25.74c7.92,8.27 15.9,15.41 25.8,23.76 3.73,3.14 53.02,40.94 53.44,44.9 -0.54,3.46 -5.7,12.75 -7.48,16.53 -2.65,5.62 -4.41,10.61 -6.42,17.51 -4.34,14.83 -1.12,27.68 2.44,41.36 11.44,43.92 45.78,86.06 83.28,109.4 10.02,6.24 20.31,11.48 31.14,16.81l12.16 5.42c7.15,3.46 15.16,5.96 22.67,8.53 21.57,7.36 54.72,14.43 81.25,14.75 38.02,0.45 76.94,-4.96 108.75,-20.84 0.16,-0.08 0.37,-0.19 0.53,-0.27 0.16,-0.08 0.37,-0.19 0.53,-0.27l8.98 -4.61c8.94,-4.9 20.59,-13.56 27.57,-20.4 18.85,-18.46 23.28,-27.88 32.39,-51.57 1.21,-3.14 2.07,-6.82 3.19,-9.35 18.97,-0.82 25.52,2.22 46.11,-2.87 15.04,-3.72 24.52,-8.12 35.07,-14.51 43.52,-26.37 40.19,-39.32 51.06,-48.47l0.7 1.12c2.01,4.32 3.8,24.75 16.17,49.54 7.11,14.25 17.69,28 29.77,37.39 13.72,10.67 28.29,17.55 45.81,21.38 22.4,4.89 37.96,5.79 61.84,3.5 20.65,-1.98 42.14,-2.64 62.95,-3.96 20.73,-1.31 42.03,-3.54 62.56,-4.53 42.14,-2.04 84.35,-5.63 126.38,-7.93 41.99,-2.3 84.71,-6.81 126.25,-8.16 17.65,-0.57 43.12,-5.33 57.11,-10.05 15.48,-5.22 30.96,-13.25 42.63,-24.53 35.94,-34.75 37.07,-76.75 33.86,-132.55 -1.12,-19.48 -5.01,-7.27 5.44,-24.84 5.95,-10.01 11.31,-23.21 15.96,-34.38 0.59,-1.43 1.8,-3.69 2.35,-5.64 0.75,-2.65 0.75,-4.1 1.91,-6.79 8.41,-1.14 26.62,4.15 62.52,-1.46 14.35,-2.25 28.28,-4.91 41.66,-9.56 0.19,-0.07 0.4,-0.15 0.59,-0.21l1.13 -0.46c0.18,-0.07 0.39,-0.16 0.56,-0.23 0.9,-0.35 2.09,-0.79 2.9,-1.09 2,-0.76 4.21,-1.6 6.38,-2.45 13.48,-5.24 31.17,-16.35 40.85,-26.28 12.32,-12.64 18.97,-22.93 23.52,-43.59 4.1,-18.6 -2.92,-44.58 -10.77,-54.07 -12.23,-14.77 -18.95,-20.22 -37.83,-29.3 -22.48,-10.81 -59.46,-14.6 -86.13,-14.82 -10.22,-0.08 -24.44,1.52 -33.5,0.86 -2.92,-3.82 -4.02,-10.01 -5.58,-14.36 -8.77,-24.42 -20.54,-48.56 -33.07,-70.81l-3.47 -6.15c-0.08,-0.15 -0.19,-0.36 -0.28,-0.52l-21.55 -37.63c-12.43,-21.16 -27.57,-51.75 -38.13,-72.95 -3.13,-6.28 -5.99,-12.82 -9.07,-18.93 -1.5,-2.96 -2.53,-5.93 -4.22,-9.37l-20.68 -48.88c-2.47,-7.18 -6.15,-12.56 -7.6,-19.78 7.13,-1.72 41.31,-0.76 51.66,-1.1 16.41,-0.53 34.57,-0.89 50.55,-3.03 15.89,-2.13 31.15,-3.64 46.83,-5.91 14.88,-2.16 30.08,-6.16 44.24,-9.25 14.16,-3.09 27.49,-7.86 40.87,-11.95 10,-3.05 20.13,-6.4 29.12,-10.84 10.69,-5.28 23.13,-9.71 36.35,-17.19 1.5,-0.85 2.42,-1.44 4.08,-2.33l38.17 -22.55c12.21,-7.7 26.5,-18.47 36.65,-28.92 11.24,-11.56 11.52,-5.85 23.81,2.72l61.07 46.06c3.71,2.52 12.11,7.92 16.86,9.57 6.47,2.24 14.72,-4.39 13.34,-10.91 -1.42,-6.75 -20.18,-25.4 -24.44,-29.19 -9.62,-8.55 -18.46,-15.45 -29.69,-23.88 -6.49,-4.87 -26.7,-19.62 -29.73,-23.87 1.47,-5 12.07,-15.48 16.43,-20.39l8.15 -10.22c10.64,-13.97 19.72,-29.9 27.95,-45.62 7.62,-14.55 5.13,-13.52 19.86,-8.04l25.45 9.65c4.18,1.42 8.57,3.28 12.74,4.87 8.34,3.19 16.33,6.47 25.09,9.27 7.61,2.43 22.25,7.98 23.97,-3.73 2.81,-19.12 -72.72,-45.34 -87.65,-50.89 0.11,-5.13 8.38,-22.45 10.45,-27.92 3.46,-9.15 7.04,-18.54 9.83,-28.55 4.89,-17.5 10.38,-35.09 14.12,-53.02 1.5,-7.19 -0.42,-9.17 4.39,-9.26 3.94,-0.07 8.22,1.06 12.05,1.64l48.55 6.38c8.53,1.2 48.03,8.21 55.27,0.75 13.13,-13.54 -37.59,-26.02 -49.6,-28.65 -8.07,-1.76 -62.55,-9.28 -63.63,-9.88l-0.43 -1.26c-0.17,-1.07 -0.23,-0.38 -0.21,-2.12 0.09,-6.99 2.27,-21.62 3.02,-28.86 4.11,-40.18 1.13,-97.05 -6.33,-136.57 -3.57,-18.93 -1.59,-12.66 9.2,-22.97l19.15 -17.59 25.43 -28.94c9.78,-12.14 20.42,-27.22 27.6,-41.16l4.54 -9.05c17.76,-36.22 32.33,-88.14 8.25,-123.9 -12.89,-19.14 -20.41,-23.18 -37.51,-35.26 -13.63,-9.63 -8.7,-4.7 -6.41,-24.35 4.99,-42.82 5.26,-105.91 -13.08,-144.83 -11.17,-23.71 -24.02,-33.27 -50.42,-40.72 -31.89,-9 -64.56,-12.45 -98.38,-11.43 -24.2,0.73 -43.13,3.78 -66.25,7.29 -18.12,2.75 -35.53,6.15 -52.81,11 -1.96,0.55 -4.65,1.77 -7.15,1.9 -1.94,-2 -1.61,-1.61 -2.84,-4.33 -0.74,-1.65 -1.6,-3.27 -2.46,-4.74 -5.6,-9.51 -11.44,-19.5 -17.89,-27.67 -28.35,-35.9 -61.14,-65.83 -116.19,-64.01 -35.88,1.19 -67.07,17.41 -89.02,31.21 -12.24,7.69 -40.11,29.09 -50.04,40.28 -7.14,8.04 -4.29,9.05 -20.38,4.31 -14.95,-4.41 -33.23,-7.88 -48.86,-11.07 -17.01,-3.46 -32.79,-6.99 -50.22,-9.71 -54.24,-8.49 -110.85,-15.42 -165.98,-13.59 -6.49,0.22 -7.86,0.5 -11.55,-3.18 -2.75,-2.74 -4.85,-5.1 -7.58,-7.61 -24.08,-22.12 -60.09,-47.3 -88.18,-62.89 -6.63,-3.68 -12.78,-7.01 -19.09,-10.51 -3.61,-2 -6.07,-3.09 -10.07,-5.1l-40.87 -19.09c-28.81,-12.3 -72.31,-28.41 -106.45,-29.05 -38.75,-0.73 -65.08,36.35 -86.97,62.91 -8.14,9.88 -14.44,21.12 -20.52,32.23 -29.91,54.68 -44.05,107.03 -47.44,170.64 -1.28,23.94 0,49.32 1.96,73.21 0.45,5.45 -2.22,7.03 -4.68,9.79 -7.33,8.21 -12.42,17.39 -18.38,26.4l-17.38 27.37c-9.55,16.33 -18.76,32.2 -26.81,49.15l-4.98 10.2c-2.98,6.39 -7.31,13.77 -9.85,20.53 -3.33,-2.97 -5.94,-7.02 -8.8,-10.35 -15.44,-18.03 -30.22,-33.69 -46.94,-49.79 -6.84,-6.58 -13.74,-12.06 -20.89,-18.27 -6.29,-5.45 -15.1,-11.54 -22.06,-16.34 -58.6,-40.37 -113.12,-69.47 -188.43,-84.16 -73.55,-14.35 -132.14,-5.65 -146.15,-8 0.27,-27.56 -4.45,-68.88 -9.77,-95.03 -1.57,-7.72 -3.04,-14.54 -4.76,-21.63 -2.13,-8.78 -2.17,-13.12 -6.78,-19.64 -11.52,-16.27 -78.84,-50.29 -97.85,-60.44 -2.88,-1.54 -5.68,-2.8 -8.55,-4.24l-26.65 -13.32c-32.92,-16.88 -73.13,-34.66 -107.2,-50.27 -12.1,-5.54 -24.29,-10.52 -36.46,-16.28 -12.35,-5.84 -24.46,-10.22 -36.92,-15.85 -11.73,-5.3 -24.69,-10.67 -37.08,-15.71l-56.06 -23.1c-13.25,-5.68 -47.76,-17.09 -55.64,-23.57 0.14,-7.38 4.06,-16.38 5.45,-24.17 2.63,-14.73 -3.44,-35.58 -11.94,-46.78l-14.21 -16.16c-7.68,-7.93 -27.12,-17.16 -43.13,-17.72 -20.02,-0.7 -35.68,6.09 -47.13,13.78 -5.83,3.91 -10.78,9.15 -15.61,14.76l-5.94 9.27c-1.67,3.39 -3.56,6.88 -4.81,10.35 -6.06,16.82 -5.19,35.48 0.86,51.72 9.68,25.97 33.62,42.09 59.98,46.45 5.24,0.87 9.28,0.28 14.17,0.87z"/>
   <path class="fil1" d="M2795.1 999.11c8.45,-1.99 17.28,1.06 24.42,3.97 14.14,5.77 22.29,16.74 27.13,32.03 7.29,23.02 -0.63,52.73 -13.05,71.43 -6.04,9.1 -10.11,11.98 -19.08,17.7 -3.84,2.45 -10.79,5.23 -15.72,5.86 -7.85,1.02 -18.08,-2.36 -24.15,-4.58 -7.84,-2.87 -12.34,-6.84 -16.98,-12.61 -17.79,-22.12 -13.89,-55.63 -2.15,-80.43 0.16,-0.33 0.56,-1.15 0.79,-1.61 0.08,-0.16 0.19,-0.37 0.27,-0.53 7.16,-13.94 20.78,-27.06 38.51,-31.24zm-372.3 -1.58c45.11,-4.55 79.37,15.75 94.15,41.94 5.3,9.39 6.96,15.73 5.49,28.65 -2.77,24.4 -17.57,38.51 -39.86,45.56 -4.26,1.34 -8.53,2.35 -13.54,3.25 -22.59,4.03 -64.06,-6.99 -83.11,-27.13 -9.27,-9.8 -18.85,-28.39 -16.48,-42.96 0.82,-5.06 2.27,-9.39 3.94,-13.55l3.86 -8.18c0.09,-0.15 0.21,-0.35 0.3,-0.5 8.79,-14.13 23.15,-24.85 45.25,-27.08zm-291.41 -169.65c19.27,-3.82 34.2,5.97 41.78,15.76 26.54,34.26 5.56,98.56 -26.08,109.63 -20.54,7.19 -38.31,1.82 -52.18,-14.57 -7.07,-8.36 -15.97,-27.37 -12.78,-44.01 5.63,-29.38 14.36,-59.89 49.27,-66.81zm788.64 -73.91c-4.79,-0.31 -7.17,0.35 -12.43,-0.39 -9.73,-1.35 -20.37,-3.68 -29.27,-6.75 -17.36,-5.99 -33.36,-14.57 -46.93,-26.6 -8.89,-7.88 -16.05,-15.8 -23.17,-24.82 -3.13,-3.96 -6.63,-11.81 -12.15,-11.78 -6.3,0.03 -15.74,1.65 -22.8,1.98 -7.82,0.35 -15.82,0.29 -23.65,0.1 -13.67,-0.35 -30.74,-1.31 -43.69,-3.82 -17.11,-3.31 -29.54,-5.16 -44.26,-11 -9.56,-3.79 -19.33,-8.67 -27.95,-13.6 -19.41,-11.13 -35.13,-30.22 -44.92,-52.64 -10.76,-24.66 -15.03,-51.54 -13.1,-82.97 1.56,-25.43 10.29,-61.23 21.81,-84.48l1.59 -3.19c0.11,-0.22 0.41,-0.87 0.52,-1.09l5.06 -10.12c0.55,-1.04 1.31,-2.46 1.94,-3.66l13.17 -22.81c1.72,-2.69 2.95,-4.96 4.48,-7.51 1.58,-2.62 3.57,-4.74 4.17,-8.54 -25.49,-4.08 -52.52,-10.82 -78.87,-15.29 -41.78,-7.08 -85.04,-12.2 -127.7,-14 -15.34,-0.65 -31.24,-0.03 -46.39,-0.91 -16.7,-0.97 -23.62,-6.07 -32.96,-13.98 -28.93,-24.49 -46.39,-40.57 -80.55,-60.17 -9.68,-5.55 -19.73,-11.47 -30.15,-16.98 -10.23,-5.4 -21.12,-11.23 -31.59,-15.62 -21.22,-8.88 -89.44,-37.1 -109.74,-29.39 -7.97,3.02 -20.41,15.49 -25.3,21.14 -22.75,26.32 -31.6,40.72 -46.81,71.46 -1.49,3.01 -2.15,5.07 -3.6,8.4 -17.31,39.85 -24.05,80.92 -27.19,125.54 -1.6,22.76 0.86,44.03 2.64,66.48 0.87,11.03 1.6,10.39 -2.1,19.57 -4.56,11.34 -12.39,18.07 -19.13,28.01 -3.41,5.02 -6.6,9.44 -9.85,14.14 -21.3,30.8 -51.28,87.59 -64.15,123.73 -2.15,6.05 -4.03,10.82 -6.24,16.91 -6.37,17.59 -10.82,36.59 -15.69,54.69 -1.45,5.38 -4.23,13.41 -4.23,18.77 5.64,3.65 55.3,12.18 76.42,24.9 5.54,3.34 15.47,8.83 17.29,16.67 -6.2,15.68 -34.5,3.52 -47.67,0.98 -12.86,-2.48 -39.14,-11.32 -50.9,-11.22 -3.17,33.01 -4.86,79.72 1.78,111.46 6.66,0.8 15.02,0.27 22.09,0.71 6.65,0.42 13.76,0.97 20.48,1.68 12.81,1.35 41.15,2.12 35.16,19.15 -3.82,10.85 -58.7,5.96 -71.09,6.47 0.88,15.39 9.51,35.4 14.93,49.57 0.07,0.19 0.15,0.39 0.22,0.58l29.93 58c4.63,0.14 14.55,-2.58 19.34,-3.77 12.49,-3.1 49.9,-10.6 56.81,0.35 12.98,20.57 -53.95,25.3 -59.03,28.64 -0.01,1.75 0.42,1.9 1.95,3.61 30.95,34.84 49.19,56.96 90.2,87.32 15.72,11.64 25.63,17.96 41.29,28.26 18.23,11.99 37.85,22.01 56.89,32.61 0.38,0.21 1.04,0.61 1.52,0.88 14.37,8 32.49,16 46.66,22.1l66.04 25.96c50.67,18.49 125.48,38.53 178.57,50.87 69.13,16.07 166.17,34.58 239.72,36.21 89.31,1.98 159.67,-3.57 242.14,-32.72l16.86 -6.36c27.77,-11.32 48.91,-24.8 73.69,-41.4 6.29,-4.21 20.81,-15.41 24.58,-20.39 -7.26,-6.82 -18.6,-11.82 -27.19,-16.77 -11.82,-6.8 -39.98,-19.35 -31.12,-36.45 13.21,-3.61 35.32,7.84 43.51,12.08 5.51,2.85 32.47,20.3 35.91,19.97 3.76,-1.84 13.53,-14.6 16.19,-18.08 9.08,-11.86 19.69,-26.57 27.37,-39.8 3.33,-5.74 10.01,-16.08 11.52,-21.98l-32.34 -9.91c-10.48,-3.39 -19.97,-8 -25.93,-15.67 0.27,-7.99 4.77,-10.49 12.76,-10.81 7.87,-0.31 13.3,0.69 20.64,2.2l27.95 7.22c2.93,0.95 5.6,2.11 9,2.19l10.37 -25.62c5.21,-13.98 25.06,-74.46 23.09,-83.9 -13.86,-4.95 -94.91,0.03 -109.27,-14.41 0.21,-5.81 2.79,-8.49 6.56,-10.88 16.8,-10.62 56.17,-8.42 75.8,-6.84 6.24,0.5 26.69,3.09 31.02,2.64 4.48,-6.17 6.78,-62.97 6.65,-74.44 -0.22,-19.39 -2.31,-37.68 -4.41,-56.67 -0.63,-5.71 -1.04,-12.44 -1.8,-18.12 -3.45,-0.57 -4.97,1.43 -8.19,3.08l-5.33 2.68c-0.16,0.08 -0.36,0.19 -0.53,0.27l-19.25 7.13c-40.57,12.89 -78.34,11.01 -112.89,-8.45 -29.72,-16.74 -49.25,-44.9 -63.34,-75.75 -8.12,-17.77 -7.11,-23.79 -11.45,-34.87z"/>
   <path class="fil1" d="M1425.84 1204.76c8.51,-5.27 37.1,-10.14 49.43,-14.39 8.09,-2.79 15.48,-6.19 22.48,-9.49 3.15,-1.48 7.93,-3.68 10.64,-5.33 17.48,-10.58 30.05,-19.71 42.51,-35.85 29.7,-38.46 19.99,-60.02 28.74,-66.42 12.98,-9.48 49.07,26.55 56.36,34.91 2.96,3.4 4.48,5.12 7.47,8.5 15.22,17.2 31.53,50.47 37.28,73.06 8.43,33.13 -3.77,71.3 -28.14,94.05 -23.5,21.92 -55.05,35.55 -89.43,36.8 -60.03,2.2 -108.49,-41.79 -130.27,-91.64 -2.94,-6.73 -7.52,-17.11 -7.07,-24.22zm-336.27 -5.09c1.98,-2.31 4.45,-0.8 10.42,0.87 15.11,4.24 16.32,4.41 17.22,-1.3 4.9,-31 18.49,-54 40.78,-74.27 29.92,-27.21 87.2,-26.96 119.81,-10.32 11.51,5.87 22.6,12.42 29.82,21.37 5.36,6.65 8.06,15.42 0.22,21.24 -5.26,3.91 -5.94,5.92 -14,3.71 -7.19,-1.97 -11.89,-5.19 -17.84,-8.5 -28.63,-15.91 -69.69,-25.61 -95.86,1.01 -8.15,8.29 -16.11,19.18 -20.77,30.39 -21.02,50.51 2.56,71.97 -8.06,84.69 -9.41,11.27 -26.04,6.48 -29.76,-9.67 -1.05,-4.59 -0.38,-7.11 -3.5,-9.26 -2.29,-1.57 -5.37,-2.39 -8.4,-4.38 -3.38,-2.22 -4.32,-3.3 -7.12,-5.72 -2.87,-2.48 -4.57,-3.44 -3.9,-7.78 6.48,-1.83 12.04,2.05 17.41,-0.05 1.62,-2.77 1.02,-10.05 -1.45,-12.2 -2.74,-2.39 -18.56,-5.36 -22.32,-9.68 -1.75,-2.01 -5.32,-7.38 -2.72,-10.13zm364.29 -201.28c15.71,-4.25 28.93,3.85 35.43,11.07 7.47,8.3 12.32,20.99 7.35,36.82 -6.66,21.24 -26.86,39.52 -50.55,44.58 -19.19,4.1 -26.65,-0.12 -35.35,-10.02 -6.92,-7.88 -11.76,-23.68 -7.04,-37.16 8.52,-24.32 24.53,-38.36 50.15,-45.29zm206.26 -211.7c-22.88,-4.85 -38.13,-6.51 -60.65,1.07 -19.1,6.42 -29.72,11.39 -41.56,27.2 -13.65,18.22 -13.01,35.05 -10.46,55.67 3.38,27.41 18.51,43.24 13.5,52.05 -3.46,6.07 -12.61,16.18 -21.63,8.8 -6.11,-5 -11.46,-12.17 -14.93,-19.43 -15.99,-33.49 -18.46,-67.85 -3.07,-102.53 6.3,-14.21 13.05,-22.98 23.53,-32.43 37.82,-34.12 75.64,-27.61 81.39,-30.18l0.68 -5.25c-0.26,-1.71 -0.56,-3.03 -0.7,-4.73 -0.3,-3.71 -0.52,-8.01 -0.65,-11.74 -0.43,-11.66 7.18,-6.02 10.35,-0.61 12.11,20.64 1.55,25.95 15.4,26.94 11.88,0.85 1.41,-9.96 4.61,-15.09 4.66,-7.5 11.79,6.18 13.43,9.86l1.75 5.46c0.99,2.96 1.51,3.39 4.05,4.75 13.82,7.38 30.29,17.13 12.69,33.28 -3.9,3.57 -10.21,2.46 -14.72,0.69 -3.72,-1.46 -9.09,-2.96 -12.98,-3.78zm163 -11.23c2.71,-4.48 7.35,-29.34 9.69,-36.53l10.11 -35.12 -14.68 -11.66c-20.19,-15.1 -41.17,-29.15 -64.79,-39.19 -6.28,-2.67 -11.52,-4.98 -18.14,-7.43 -41.69,-15.45 -83.82,-23.62 -130.04,-24.48 -57.16,-1.06 -124.14,9.53 -177.5,29.84 -4.78,1.82 -14.04,5.16 -18.14,8.21 -9,6.69 -36.44,120.73 -40.94,138.94 -6.87,27.8 -13.9,54.74 -20.48,82.66 -1.75,7.42 -3.56,13.34 -5.63,20.69 -1.59,5.66 -3.05,14.46 -8.33,17.29 -9.18,4.92 -58.87,17.79 -74.69,22.81l-43.66 13.93c-13.46,4.69 -25.66,8.56 -38.74,13.19 -12.53,4.43 -25.97,8.19 -38.03,13.13 -23.4,9.58 -50.57,18.32 -75.07,28.07 -6.69,2.66 -12.88,4.81 -18.75,7.61 -10.85,5.18 -26.11,34.64 -31.72,45.02 -11.71,21.68 -22.48,44.64 -31.2,71.95 -28.56,89.43 -23.42,174.07 10.25,261.84 8.92,23.23 21.1,46.86 37.84,65.25 8.24,9.05 16.62,17.9 25.67,26.3 47.08,43.72 117.55,70.21 180.47,77.92 23.83,2.92 75.04,3.83 98.07,-0.76 24.58,-4.91 55.44,-16 78.85,-24.2 36.86,-12.91 72.46,-29.94 107.08,-48l33.51 -18.43c11.17,-6.44 22.01,-12.1 32.62,-19.38 20.39,-14 41.53,-26.77 61.06,-42.03 5.05,-3.94 9.38,-7.17 14.61,-10.96 10.2,-7.39 17.93,-16.13 26.65,-25.32 3.76,-3.96 8.51,-7.45 13.38,-12.21l59.17 -56.77c2.33,-2.28 3.99,-4.46 6.15,-6.61l37.84 -39.71c16.33,-18.09 30.37,-38.61 43.68,-59.43 7.65,-11.97 15.05,-25.63 21.62,-38.34l14.05 -29.12c11.83,-25.55 3.04,-14.14 -4.34,-35.22l-64.68 22.15c-15.89,6.09 -23.72,10.4 -38.09,-0.85 -0.22,-19.08 44.26,-34.02 59.7,-39.11 8.06,-2.66 17.5,-5.01 24.32,-8.44 -0.46,-3.06 -2.18,-4.36 -3.65,-6.73 -12.47,-20.09 -27.28,-57.94 -33.94,-80.38 -1.21,-4.07 -7.28,-30.04 -9.56,-31.36 -1.33,-0.39 -37.4,1.95 -43.15,2.24 -9.73,0.48 -34.51,4.68 -35.79,-10.22 -0.94,-10.93 20.01,-14.79 30.65,-16.24 6.77,-0.92 13.58,-2 20.38,-2.48 5.63,-0.39 17.49,-0.29 22.09,-1.3l-2.49 -61.38c-0.05,-10.74 0.35,-21.06 0.84,-31.77 0.36,-7.88 1.96,-21.89 1.64,-28.78 -13.57,-2.19 -82.39,-6.76 -84.6,-20.2 0.37,-6.84 9.11,-11.86 15.25,-13.64 17.66,-5.12 31.91,-2.16 50.04,0.37 5.29,0.74 20.22,4.63 23.54,4.35z"/>
   <path class="fil2" d="M2421.43 1447.96c0.05,0.75 0.07,1.61 0.22,2.34 0.69,3.15 0.03,0.51 0.81,1.84 2.19,-1.86 0.04,-1.85 1.85,0.32 0.44,0.53 0.84,1.74 1,2.23 0.79,2.39 0.75,2.89 0.9,6.11 -0.23,-0.33 -1.3,0.55 -0.02,-1.45 1.27,-1.97 -0.36,-0.63 1.23,-0.56 0.1,0.21 0.17,0.49 0.22,0.65l0.4 1.31c2.22,8.42 0.89,20.67 -2.56,28.55 -1.64,3.74 1.01,1.49 -2.35,2.95l-0.64 -2.1c-0.71,1.02 0.02,-0.75 -0.87,1.85l-5.09 22.27c2.32,-0.57 3.31,0.14 2.76,3.03 -0.51,2.72 -0.25,0.52 -1.17,2.2l-3.29 9.43c-1.28,3.88 -2.45,5.1 -4.41,8.55 -0.76,1.35 -0.51,0.96 -1.2,2.02 -3.57,5.46 -1.55,2.88 -1.83,9.17 -3.2,2.39 0.26,-0.17 -4.52,1.7 -2.47,0.96 -0.6,0.11 -1.83,1.04l-1.37 1.26c0.04,2.18 0.55,2.13 0.56,2.19l-0.32 1.84c-3.33,6.16 -1.9,5.73 -5.13,8.51 -3.61,3.11 -2.26,3.91 -4.85,5.61 -1.51,1 -1.21,0.32 -2.18,0.99 -0.84,0.58 -2.21,5.07 -9.98,6.71 -2.86,0.61 -2.21,0.15 -5.44,3.31 -1.53,1.49 0.15,0.18 -1.85,1.56l-20.06 11.85c-0.15,0.09 -0.33,0.24 -0.48,0.33l-5.52 2.71c-3.36,1.4 -1.73,0.16 -2.88,1.54 -3.8,-2.76 -1.16,1.59 -1.07,-2.46 -3.57,1.27 -7.36,3.77 -11,5.56 -24.76,12.17 -56.25,21.66 -83.34,26.91 -30.36,5.88 -55.32,8.49 -85.97,9.46 -5.75,0.18 -26.52,-0.19 -30.24,0.69 -2.12,20.95 -4.75,30.49 -6.16,51.37 -3.54,52.62 -1.39,107.02 9.56,158.1 3.93,18.33 13.26,49.17 20.85,65.64 5.56,12.05 0.02,11.24 16.29,11.68 17.7,0.48 35.91,2.44 53.58,3.48 17.79,1.05 35.88,2.13 53.54,2.85 72.55,2.93 144.99,6.44 217.41,10.38 72.07,3.91 144.21,8.81 216.25,12.1 -2.18,-4.47 -0.78,-0.89 0.42,-2.33 7.57,-0.05 11.9,-0.16 17.11,-3.15 4.38,-2.51 2.6,-4.69 4.83,-8.47 1.13,-1.91 2.05,-2.06 3.48,-5.19l6.61 -15.03c2.15,-3.06 -0.72,-1.88 3.51,-2.01 2.96,-4.19 12.71,-30.19 14.94,-38.11 4.34,-15.37 7.45,-25.99 9.71,-42.95 -4.35,0.34 -2.38,-3.26 -1.58,-10.02 1.53,-13.06 0.93,-23.18 0.96,-36.63 0,-1.64 0.13,-4.05 0,-5.6 -0.2,-2.44 -1.79,-4.42 -3.79,-9.6l-0.73 -1.64c-0.02,-0.06 -0.8,-2.49 -0.8,-2.51 -0.67,-3.38 -1.53,-12.78 -2.68,-15.6 -1.4,-3.47 -0.59,0.52 -2.41,-3.93 -0.88,-2.15 -1.72,-6.8 -2.43,-9.63 -0.59,-2.34 -0,-0.4 -0.77,-2.37 -0.07,-0.18 -0.16,-0.39 -0.23,-0.56l-1.26 -2.71c-4.8,-8.7 0.09,-1.79 -4.56,-12.3 -4.95,-11.18 -6.47,-21.22 -9.92,-27.63 -4.78,-8.9 0.58,-1.3 -6.02,-9.93 -1.96,-2.56 -0.19,-1.59 -1.96,-3.26 -2.72,-2.57 1.26,2.38 -1.55,-1.14l-0.43 -1.35c-0.04,-0.18 -0.12,-0.48 -0.16,-0.7l-1.05 -4.42c-0.08,-0.14 -0.22,-0.33 -0.3,-0.47 -2.93,-4.76 -2.84,-1.7 -4.52,-7.63l-2.16 -5.01c-3.02,-7.58 -2.22,-1.48 -5.18,-8.35 -1.49,-3.47 -2.62,-7.22 -4.03,-10.75l-0.8 0.23c-6.06,-3.35 -5.46,-15.13 -12.53,-19.1 -0.27,-8.66 -1.3,-5.43 -1.94,-8.41 -0.4,-1.86 -0.07,-0.32 0.17,-3.11 0.18,-0.07 0.52,-0.35 0.57,-0.15l0.8 -0.15c2.02,0.19 0.35,0.1 0.18,0.3l-2.32 -6.14c-2.73,-5.82 -4.86,-8.62 -2.73,-10.58l-16.45 -33.52c0.03,2.75 1.14,1.09 -1.16,2.27 -3.64,-1.8 -0.7,0.94 -2.93,-3.06 -0.09,-0.16 -1.07,-2.44 -1.19,-2.69 -0.08,-0.16 -0.18,-0.37 -0.26,-0.52l-4.53 -9.97c-0.07,-0.21 -0.15,-0.42 -0.22,-0.63 -1.01,-3.08 -0.25,-2.84 -2.82,-5.19 -2.85,-2.61 -2.97,-1.68 -3.77,-5.06l-7.81 -18.35c-0.08,-0.14 -0.18,-0.36 -0.27,-0.5 -1.3,-2.06 -1.57,-1.1 -3.11,-3.09 -1.96,-2.51 -1.18,-4.23 -2.08,-7.08l-5.53 -10.38c-1.49,-4.35 0.25,-3.7 -1.78,-7.68l-2.29 -5.84c-0.35,-0.7 -1.37,-1.42 -2.24,-2.12l-6.24 -5.83 -1.19 1.18c-0.23,-4.22 -0.42,-2.15 -0.93,-3.14 -0.11,-0.22 -0.52,-0.76 -0.64,-0.97l-3.94 -9.8c-1.39,-7.36 -0.76,-2.75 -2.37,-8.04 -1.97,-6.48 -4.29,-12.46 -9.75,-16.34l-1.51 -2.06c0.01,-0.04 0.2,-0.19 0.24,-0.31 -8.17,-1.9 -5.69,-1.44 -9.43,-4.53 -9.09,-7.52 -4.28,-5.85 -4.16,-5.75 -9.63,-0.08 -10.8,-1.54 -15.19,-1.69 -0.36,-1.07 0.59,-1.95 0.8,-1.37 -5.77,0.03 -7.8,-0.17 -12.68,-1.19 -4.28,-0.89 -8.71,-0.03 -12.95,-0.63 -3.4,-0.48 -6.46,-1.88 -11.23,-2.25 -3.9,-0.31 -7.8,-0.39 -12.01,-0.83 -4.61,-0.48 -1.89,-0.86 -5.12,-1.25 -0.54,-0.07 -3.11,-0.02 -5.2,-0.44l-10.47 -2.54c-7.83,-2.94 -17.17,-2.37 -21.23,-6.28l2.75 -0.1c-2.92,-2.36 -31.92,-7.07 -38.21,-8.33 -12.53,-2.52 -25.56,-5.75 -38.33,-7.84 0.3,0.27 0.6,0.71 0.8,0.91l1.59 1.33c-4.99,0.86 0.65,4.68 -8.41,5.12 -0.54,7.15 -3.48,-1.2 1.68,10.64 1.5,3.45 1.66,5.81 3.74,10.54 1.98,4.5 4.07,6.02 4.38,12.04 0.65,12.57 1.53,8.52 1.79,13.62 -0.23,0.13 -0.48,0.44 -0.62,0.48 -0.44,0.13 -0.74,0.47 -1.82,-0.44z"/>
   <path class="fil1" d="M1978.21 1747.62c-8.2,3.92 -11.12,17.27 -21.83,18.13 -5.53,0.44 -11.06,-3.37 -11.86,-7.75 -1.36,-7.5 4.22,-15.82 7.81,-21.79 6.36,-10.55 11.07,-22.93 13.74,-35.02 6.5,-29.41 6.73,-60.07 3.24,-90.16 -2.24,-19.3 -0.99,-17.3 -14.68,-24.46 -4.77,-2.49 -21.82,-13.91 -24.39,-14.63 -5.38,5.2 -8.32,12.43 -12.49,18.58 -12.51,18.44 -24.93,34.74 -42.34,48.75 -5.79,4.66 -11.58,9.2 -17.87,13.35 -8.04,5.31 -16.07,9.47 -24.69,13.67l-16.31 6.04c-25.33,7.88 -54.98,10.98 -81.63,6.02 -18.93,-3.53 -31.72,-7.86 -46.38,-14.32 -13.11,-5.78 -27.84,-13.75 -38.93,-21.84 -5.86,-4.28 -11.75,-8.42 -17.45,-12.95 -5.41,-4.3 -10.25,-10.07 -15.75,-13.93 -3,3.57 -14.68,44.29 -17.28,53.08 -2.69,9.08 -5.37,17.83 -8.23,26.96 -1.92,6.12 -7.5,21.52 -6.68,27.55 5.31,3.29 8.12,5.24 12.04,9.43 19.48,20.82 21.72,55.27 0.21,76.49 -7.41,7.31 -14.22,12.93 -27.78,15.39 -47.27,8.58 -79.17,-38.49 -62.31,-74.31 12.87,-27.34 14.12,-5.71 -14.25,-49.36 -1.98,-3.04 -4.61,-8.42 -7.97,-10.48 -3.6,5.14 -11.01,44.04 -13.17,54.01 -4.11,19 -8.64,38.29 -6.48,59.46 2.39,23.4 8.44,46.28 18.7,64.24 5.69,9.96 12.63,21.55 19.81,29.73 5.95,6.79 10.67,11.31 16.52,17.06 17.54,17.24 38.24,29.44 54.87,45.07 18.3,17.21 31.69,39.39 35.06,64.75 0.95,7.19 0.8,9.26 -2.89,13.56 -2.96,3.45 -3.76,5.52 -10.58,5.52 -1.85,-2.88 -4.96,-7.9 -9.51,-7.96 -6.97,9.98 4.63,42.96 10.13,53.78 0.37,0.73 0.86,1.72 1.06,2.13l11.83 20.15c12.11,18.46 33.3,37.27 52.97,48.59 49.54,28.51 105.26,42.73 163.84,36.74 26.22,-2.68 61.25,-13.85 76.84,-25.44 35.75,-26.55 50.14,-62.16 36.58,-106.32 -7.49,-24.39 -21.78,-46.23 -39.92,-62.44 -6.63,-5.93 -21.72,-19.65 -28.74,-21.48 -12.09,7.21 -17.89,22.51 -32.08,9.6 -7.9,-7.18 8.22,-19.55 11.72,-36.44 2.09,-10.08 4.03,-20.18 3.03,-30.86 -3.15,-33.76 -17.1,-45 -4.04,-53.31 10.48,-6.67 16.05,3.31 20.52,9.41 4.11,5.61 9.24,15.83 11.12,24.07 11.82,52.02 -13.28,43.29 19.54,65.16 20.99,13.99 46.33,45.18 56.39,66.78 4,8.59 6.86,15.25 9.93,25.26 5.49,17.89 2.69,26.95 8.81,28.78 0.7,0.21 0.53,0.14 1.32,0.3 0.55,0.11 2.11,0.28 2.79,0.38 6.27,0.91 12.71,1.49 19.01,0.61 8.07,-1.12 16.01,-2.91 22.93,-5.26 26.54,-9.01 46.99,-27.67 60.12,-51.76 0.77,-1.42 1.59,-3.29 2.34,-4.88l0.77 -1.64c0.08,-0.18 0.17,-0.38 0.25,-0.56l1.11 -2.89c1.39,-3.59 2.35,-6.01 3.57,-9.98 16.31,-53.05 -6.35,-108.96 -34.56,-148.69 -5.18,-7.29 -19.38,-25.22 -28.75,-26.53 -3.91,10.28 -5.34,31.8 -22.42,27.38 -13.7,-3.54 -5.78,-27.11 -5.13,-39.6 1.33,-25.6 -5.38,-49.68 -16.13,-71.88 -1.58,-3.27 -1.57,-5.47 -5,-7.06z"/>
   <path class="fil3" d="M1268.9 817.56c0.16,0.18 0.29,0.49 0.34,0.64l0.39 1.18c-0.02,1.76 0.25,0.33 -0.63,1.4l-7.26 5.73c-4.41,3.34 -4.66,5.6 -8.11,8.7 -1.63,1.47 -3.27,2.36 -4.8,3.98 -3.54,3.75 -2.92,4.35 -8.32,8.57 -5.38,4.21 -3.95,3.54 -4.61,1.37 -1.56,0.71 -0.61,0.04 -1.76,0.93 -1.07,0.83 -0.45,0.46 -0.92,1.33 0.38,3.47 -0.47,4.39 -2.64,6.36l-14.2 12.15c-6.8,7.16 -0.89,5.58 -13.32,13.26 -5.92,3.66 -4.64,1.61 -4.97,1.02 -3.99,0.52 -4.49,-0.25 -6.31,-2.48l-12.18 -13.86c-4.69,3.43 -5,5.91 -10.31,9.33 -35.57,22.92 -50.26,31.15 -100.31,22.72l0.05 3.24c-7.24,-0.47 -9.05,-1.79 -14.13,-4.36 -16.35,-8.27 -15.97,-9.91 -28.9,-23.15l-5.39 -8.2c-2.33,-3.77 -3.01,-6.39 -7.47,-13.28 -1.39,-2.14 -10.21,-21.89 -6.62,-25.07 -3.28,-27.75 -1.47,-51.16 8.97,-75.33 12.28,-28.44 34.67,-63.16 60.1,-82.19 2.14,-1.6 3.76,-3.12 5.72,-4.66 19.63,-15.44 45.83,-29.67 72.38,-36.22 39.46,-9.74 72.67,-7.8 104.38,16.08 27.54,20.73 36.93,62.22 26.41,96.21 -3.42,11.04 -8.11,21.03 -13.5,29.67 -4.58,7.33 -2.96,9.18 1.27,15.01 1.71,2.35 2.96,4.48 4.83,6.36 2.13,2.13 3.56,3.03 5.1,5.56 0.42,2.45 -10.15,15.25 -13.27,17.99zm-201.78 -147.73c0.18,-5.19 1.72,-6.14 5.36,-8.6l15.18 -9.62c2.54,-1.51 4.41,-2.66 7.06,-2.28 1.89,0.27 0.82,0.03 1.88,0.75 -1.02,1.99 -1.7,1.85 -3.48,2.96l-10.52 7.05c-4.44,2.83 -7.77,8.69 -15.49,9.74zm18.47 886.47c0.83,-2.27 1,-4.4 3.31,-4.66 -1.61,-3.28 -5.6,-5.05 -8.39,-7.06 -3.59,-2.6 -4.91,-4.21 -8.19,-6.98 -21.11,-17.82 -26.39,-21.11 -46.01,-44.37 -4.83,-5.73 -9.11,-10.01 -14.18,-16.19 -11.2,-13.68 -27.16,-39.41 -34.33,-56 -9.55,-22.09 -12.81,-35.93 -19.08,-56.98l-6.5 -23.58c-4.96,-24.49 -6.05,-41.79 -8.35,-66.09 -4.81,-50.84 3.9,-110.45 21.52,-157.35 16.83,-44.79 13.35,-40.94 37.19,-83.54 19.75,-35.29 28.15,-44.39 64.32,-56.42 15.45,-5.14 29.75,-10.15 45.07,-14.89 15.13,-4.68 29.12,-10.97 44.14,-15.85 14.83,-4.82 30.62,-9.67 45.63,-15.1 14.03,-5.08 29.41,-10.82 44.22,-15.69 12.51,-4.11 61.9,-17.68 70.03,-21.16 4.43,-1.9 4.3,-4.75 6.1,-9.13 1.24,-2.99 3.17,-6.21 4.31,-10.11 4.51,-15.47 8.34,-32.58 12.3,-48.46 3.96,-15.92 8.63,-31.69 12.41,-47.59 4.94,-20.78 18.75,-77.23 24.6,-95.29 3.47,-10.71 11.35,-35.92 17.07,-43.6 12.58,-16.87 64.56,-27.16 86.31,-33.45 40.49,-11.71 61.61,-14.89 103.7,-16.78 18.93,-0.85 39.34,-2.62 58.13,-0.75 14.24,1.42 93.54,13.25 97.47,22.47 6.14,-0.04 6.97,-1.88 10.73,-4.79 -0.22,-0.16 -0.54,-0.26 -0.74,-0.34 -0.19,-0.08 -0.49,-0.23 -0.71,-0.32 -2.52,-1.06 -3.44,-0.14 -2.02,-1.06 1.32,-0.86 3.41,-0.5 5.27,-0.5 0.04,-3.38 -1.71,-0.25 0.87,-2.33 1.85,3.3 6.8,5.21 10.28,7.54l-12.01 -10.72c-4.62,-3.83 -1.65,-3.36 -1.52,-3.42l-4.08 -3.8c-4.78,-3.95 -7.48,-7.63 -10.87,-8.55 -3.22,1.96 -4.87,7.44 -10.19,5.03 0.16,-3.69 -0.51,-0.75 1.47,-2.96 2.08,-2.32 4.92,-3.77 5.98,-6.56 -3.78,-4.72 -15.98,-11.74 -21.51,-15.02 -7.74,-4.59 -15.99,-8.57 -24.03,-12.75 -23.1,-12.03 -16.1,-6.08 -26.18,-10.51 -8.16,-3.58 -15.99,-8.65 -24.77,-12.12 -35.84,-14.16 -81.94,-23.35 -122.21,-25.1 -91.26,-3.95 -172.58,12.16 -256.86,36.81 -38.01,11.12 -71.9,26.67 -104.85,42.3 -16.85,8 -31.53,17.3 -47.72,25.82 -19.48,10.25 -56.66,40.06 -73.05,54.86 -8.61,7.77 -21.42,16.82 -29.97,25.2 -12.29,12.04 -24.86,24.3 -36.14,37.44 -13.82,16.11 -15.09,21.5 -32.62,40.93 -6.13,6.8 -11.8,10.86 -17.21,18.77l-54.83 92.27c-12.61,23.48 -35.14,78.67 -42.09,105.02 -23.24,87.99 -25.5,170.45 -4.14,258.84 11.53,47.72 43.37,110.33 70.76,149.86 10.03,14.47 20.4,28.61 30.73,42.02 22.68,29.45 22.51,25.57 43.61,48.29 16.81,18.11 51.05,44.43 73.27,55.38 16.62,8.19 34.65,12.74 54.55,19.07z"/>
   <path class="fil3" d="M150.89 1299.22c0.48,2.39 4.7,9.18 6.28,13.42 2.11,5.67 1.98,11.57 5.58,14.52 3.25,2.66 9.9,3.49 14.74,5.33 4.77,1.81 8.76,4.07 13.34,5.83 9.99,3.82 48.17,12.78 61.9,16.47 42.4,11.39 85.77,17.84 128.79,28.66 42.86,10.79 88.44,16.63 132.09,25.48 11.08,2.25 22.52,3.88 34.32,4.84 10.09,0.82 22.97,3.85 33.42,5.65 22.56,3.89 44.88,7.48 67.78,10.7 12.1,1.7 24.06,2.2 36.39,3.49 11.69,1.23 25.77,2.21 37.61,1.55 13.06,-0.73 13.21,-3.34 22.01,-17.13 8.27,-12.95 24.42,-31.8 33.56,-45.6 5.42,-8.19 10.23,-15.51 15,-24.21 7.03,-12.82 9.57,-12.91 4.99,-28.78 -2.75,-9.54 -6.51,-19.95 -10.14,-28.97 -7.53,-18.68 -15.44,-38.15 -19.61,-59.3 -11.4,-57.8 -15.77,-120.54 -7.65,-179.23 0.82,-5.9 4.32,-30.62 3.8,-34.61 -5.52,-3.84 -14.38,-8.32 -21.1,-11.57 -11.51,-5.58 -21.24,-10.74 -33.44,-15.33 -20.95,-7.89 -11.56,-3.55 -33.45,-14.59 -6.1,-3.07 -7.27,-2.09 -13.91,-2.84 -4.57,-0.52 -28.45,-11.04 -34.58,-13.41 -10.69,-4.14 -40.22,-14.78 -52.15,-10.06 -16.91,6.69 -39.95,30.57 -54.54,42.97l-25.87 22.9c-7.55,7.3 -17.94,15.22 -26.7,21.25 -9.96,6.85 -27.51,20.08 -36.02,27.95 -23.57,21.83 -49.26,39.5 -70.79,58.7 -11.21,10 -22.55,20.28 -34.99,29.74 -15.61,11.87 -14.18,11.61 -26.23,22.54 -11.05,10.02 -31.75,26.6 -42.88,37.88l-69.37 60.1c-1.67,1.39 -2.92,2 -4.56,3.48 -1.75,1.57 -2.04,2.55 -3.87,4.09 -20.1,16.91 -23.97,14.28 -29.74,18.09z"/>
   <path class="fil4" d="M1059.32 581.02c7.46,-0.13 6.15,0.05 13.59,-4.09 10.27,-5.73 23.86,-15.42 35.84,-17.98 1.4,-0.11 25.62,-12.95 30.1,-15.14 10.77,-5.25 21.43,-9.43 32.71,-14.48 44.99,-20.15 93.07,-33.79 141.45,-45.59l78.12 -16.23c2.3,-16.27 -4.79,-73.92 -8.12,-91.1 -2.53,-13.07 -7.15,-26.53 -16.51,-33.18 -9.46,-6.72 -20.1,-13 -31.2,-19.19 -29.36,-16.38 -68.18,-39.54 -98.67,-51.62 -12.74,-5.05 -22.67,-10.51 -34.18,-16.18 -25.55,-12.58 -44.46,-20.05 -68.66,-31.24 -32.69,-15.12 -71.25,-31.26 -105.87,-44.48 -14.55,-5.56 -37.17,-15.86 -52.55,-22.63 -6.16,-2.71 -11.35,-5.61 -17.45,-8.16l-37.93 -13.5 3.57 33.55c5.15,20.41 2.05,15.71 4.39,32.51 2.89,20.73 7.87,41.49 10.01,62.5 2.87,28.18 10.17,65.08 16.51,93.19 2.12,9.39 4.52,21.38 5.58,31.38 3.27,30.69 9.86,62.21 16.36,92.12 2.63,12.07 9.25,53.82 11.78,60.93 5.01,14.07 28.06,20.63 45.17,28.45 6.66,3.04 18.54,9.52 25.97,10.14z"/>
   <path class="fil1" d="M2684.11 1986.07c-14.32,-0.72 -29.8,-1.31 -44.01,-2.52 -29.02,-2.46 -58.86,-2.36 -87.92,-4.86 -29.06,-2.5 -59.36,-2.25 -88.64,-4.35 -28.86,-2.06 -58.91,-3.83 -88.03,-4.44 -29.23,-0.61 -58.9,-3.83 -87.93,-4.71 -29.2,-0.89 -59.05,-2.77 -88.26,-4.53 -30.75,-1.85 -23.71,-5.84 -33.67,10.41l-6.51 12.71c-0.08,0.16 -0.19,0.37 -0.27,0.53l-1.59 3.18c-0.08,0.17 -0.18,0.37 -0.25,0.54l-1.13 2.87c-8.27,22.37 -9.72,39.82 -4.55,64.85l2.16 9.07c0.7,3.08 1.88,6.2 2.9,9.07 9.32,26.45 27.89,41.52 57.37,47.34 21.81,4.31 64.32,-0.37 87.7,-2.3 57.68,-4.75 116.23,-7.6 173.92,-11.36 28.8,-1.88 58.72,-3.16 87.27,-5.54 28.59,-2.39 58.94,-2.59 87.04,-5.84 26.76,-3.09 56.09,-12.04 68.52,-36.17 4.45,-8.65 6.6,-16.49 7.92,-26.56 1.37,-10.49 2.62,-33.9 1.73,-44.25l-43.78 -3.16z"/>
   <path class="fil1" d="M1672.53 1468.3c-4.55,16.14 -16.04,38.91 -22.82,54.85 -1.38,3.23 -2.62,5.23 -4.11,8.63l-7.13 18.47c-3.28,8.33 -14.74,31.2 -8.02,38.36 7.51,8.01 8.96,11.03 19.38,18.98 46.46,35.45 92.28,56.22 154,39.27 24.47,-6.72 39.09,-17.12 57.12,-32.45 24.21,-20.58 41.13,-50.96 54.59,-79.66 1.59,-3.39 7.88,-18.45 11,-21.02 2.42,-1.99 6.3,-2.24 9.66,-3.17 3.17,-0.88 6.29,-2.35 9.19,-3.56 6.55,-2.74 11.68,-5.36 16.9,-8.66 21.62,-13.65 35.97,-31.07 49.49,-52.81 19.17,-30.82 35.32,-82.07 15.73,-120.51 -3.02,-5.93 -6.43,-10.53 -10.51,-15.07 -20.05,-22.34 -63.1,-16.5 -89.19,-3.57 -28,13.88 -43.66,30.21 -60.37,54.75l-12.38 22.01 -12.4 29.96c-2.17,6.9 -3.49,12.69 -5.26,20.32 -2.82,12.17 -1.59,36.75 -12.02,39.29 -8.45,2.06 -11.78,-7.57 -16.37,-9.19 -4.24,-1.5 -23.28,10.39 -27.74,12.92l-21.8 13.36c-8.88,6.52 -17.78,18.62 -29.22,21.99 -6.29,1.85 -15.06,-2.59 -19.03,-4.76 -8.53,-4.66 -20.11,-17.03 -26.41,-24.74 -2.1,-2.57 -10.24,-13 -12.3,-13.99z"/>
   <path class="fil5" d="M1137.42 823.56c-1.54,10.73 -7.81,24.72 -14.73,28.66 -17.81,10.16 -30.17,12.59 -52.2,8.38 -8.34,-1.59 -9.46,-3.43 -13.2,-8.29 -7.69,-10 -10.61,-19.41 -2.78,-32.31 2.53,-4.17 7.67,-5.94 13.79,-7.82 8.69,-2.68 10.4,-0.87 14.68,-1.15 3.25,-0.21 2.58,0.57 3.21,-2.59 1.44,-7.14 -0.28,-10.74 3.79,-17.7 2.12,-3.62 7.08,-8.34 10.82,-10.78 11.39,-7.44 24.72,-0.22 30.9,6.75 6.01,6.79 7.25,26.22 5.72,36.85zm62.95 -123.16c2.9,-1.85 1.58,-0.51 1.7,-4.73 0.25,-8.86 4.95,-18.29 12.52,-22.57 4.88,-2.76 10.44,-4.54 16.31,-2.38 3.32,1.22 10.97,4.82 13.08,6.88 6.08,5.96 7.63,23.93 6.58,33.86 -0.84,7.94 -5.21,25.93 -10.24,29.74 -5.85,4.43 -22.67,7.49 -31.45,9.26 -16.8,3.38 -32.44,-2.12 -40.08,-17.64 -4.88,-9.92 2.74,-32.76 23.33,-31.97 -1.37,-1.08 0.08,-0.01 -1.53,-0.93 -0.46,-0.26 -0.97,0.15 -1.29,-0.7 -0.13,-0.33 -0.48,-0.23 -0.68,-0.37l0.41 -4.96c1.19,-0.84 4.17,-2.79 5.5,-3.39 2.41,-1.07 4.53,-0.91 7.02,-1.68 -0.42,3.02 -0.9,3.08 -1.04,6.06 -0.16,3.49 0.77,1.48 -0.15,5.52zm-193.88 128.69l8.67 23.77c4.24,9.01 8.05,13.65 13.67,19.9 9.54,10.61 13.49,15.54 27.89,22.5 4.04,1.95 8.15,2.89 12.24,4.65 50.05,8.43 64.74,0.2 100.31,-22.72 5.32,-3.43 5.62,-5.91 10.31,-9.33l12.18 13.86c1.82,2.22 2.32,3 6.31,2.48 5.65,-5.34 8.54,-3.27 13.11,-10.67 6.76,-10.95 6.7,-6.17 11.2,-12.58 -1.91,-2.72 -3.54,-3.34 -6.04,-5.38 -2.58,-2.1 -4.48,-3.67 -6.47,-6.34 -3.88,-5.22 -8.24,-14.62 2.49,-15.51 4.08,2.23 5.61,5.66 8.26,9.54 2.72,3.97 5.79,5.5 9.28,8.99l3.3 -0.85c0.47,-0.87 -0.15,-0.5 0.92,-1.33 1.15,-0.89 0.2,-0.22 1.76,-0.93 2.7,-3.7 9.93,-8.59 10.98,-12 -1.78,-2.47 -3.35,-2.97 -5.71,-4.81 -18.27,-14.29 -9.3,-28.98 -2.71,-22.92 0.01,0.01 10.3,17.57 15.48,18.28 4.16,-0.81 11.72,-7.52 14.97,-10.14 3.12,-2.74 13.69,-15.53 13.27,-17.99 -1.54,-2.53 -2.97,-3.43 -5.1,-5.56 -1.87,-1.88 -3.13,-4.01 -4.83,-6.36 -4.23,-5.83 -5.85,-7.68 -1.27,-15.01 5.39,-8.64 10.08,-18.63 13.5,-29.67 10.52,-33.99 1.13,-75.49 -26.41,-96.21 -31.71,-23.87 -64.92,-25.81 -104.38,-16.08 -26.55,6.55 -52.75,20.78 -72.38,36.22 -1.96,1.54 -3.58,3.06 -5.72,4.66 -25.43,19.03 -47.82,53.76 -60.1,82.19 -10.44,24.17 -12.25,47.58 -8.97,75.33z"/>
   <path class="fil6" d="M2703.75 359.16c-3.73,1.72 -12.62,13 -16.45,16.72 -13.07,12.68 -32.97,42.69 -41.65,59.07 -26.02,49.11 -40.94,104.5 -15.71,160.52 5.77,12.81 22.09,25.49 35.46,31.78 15.09,7.1 34.37,11.69 52.8,14.46 11.71,1.76 54.13,4.53 64.07,1.79 0.29,-6.1 -5.87,-20.29 -3.92,-40.64 1.23,-12.82 5.42,-5.65 -9.49,-17.53 -2.86,-2.27 -4.81,-4.16 -7.99,-7.24 -5.9,-5.72 -10.67,-8.98 -14.98,-15.36 -5.89,-8.71 -12.26,-35.68 -11.44,-48.59 0.98,-15.45 8.74,-34.64 16.26,-44.31 -3.88,-0.39 0.94,-0.93 -3.08,0.36 0.56,-4.41 2.63,-4.98 5.18,-8.03 0.91,-1.09 1.27,-1.85 2.21,-3.22 5.07,-7.41 10.7,-12.1 18.72,-16.84 6.8,-4.01 12.02,-6.57 19.88,-8.41 5.08,-1.19 -0.29,0.08 3.63,-1.71 2.65,-1.21 3.46,-0.28 4.37,-0.16 2.75,0.34 -0.37,-0.05 1.86,-1.41 2.52,-1.55 10.39,-4.75 12.6,-2.72l-6.87 -0.21c0.89,-2.23 0.33,-1.12 1.53,-2.56l2.64 -4.5c3.79,-0.36 3.95,-1.43 8.18,-1.65 5.06,-0.27 13.44,-0.95 18.19,0.36 0.21,0.06 0.4,0.15 0.6,0.22 0.19,0.06 0.38,0.17 0.56,0.23l6.11 1.03c1.75,0.33 2.09,0.77 3.69,1.08l6.16 1.11c1.8,0.58 3.21,0.38 4.56,1.71l0.32 0.66c0.33,0.96 -1.07,1.55 1.8,2.72 0.73,0.3 1.03,0.3 1.87,0.59 2.37,0.8 1.98,1.27 5.27,1.41 -0.06,3.54 -0.58,2.03 0.19,3.5l2.54 2.44c0.13,0.09 0.34,0.21 0.47,0.29l8.97 5.66c2.29,2.32 1.39,4.34 1.27,2.92 -0.01,-0.06 -0.15,0.03 -0.19,-0.02 2.82,1.08 3.07,0.71 4,2.42 1.8,0.35 0.36,-0.43 2.98,-1.44 2.41,2.56 9.78,1.71 14.61,1.68 1.47,-2.65 3.63,-5.25 6.4,-6.64 2.91,-1.46 -0.35,0.93 1.78,-0.67 0.09,-2.84 0.54,-7.93 0.58,-9.19l-4.15 -15.01c-3.51,-6.4 -5.68,-13.77 -9.27,-20.33l-3.53 -4.37c-0.51,-0.73 -0.39,-0.57 -0.93,-1.57l-4.48 -10.72c-0.42,-0.8 -1.03,-2.01 -1.74,-2.94 -2.77,-3.62 -6.05,-7.19 -8.14,-11.18 -3.32,-6.34 -9.9,-11.06 -13.71,-16.51 -2.5,-3.57 -5.37,-8.08 -8.82,-10.99l-7.14 -4.82c-0.14,-0.1 -0.34,-0.23 -0.48,-0.32l-19.24 -10.95c-1.73,-0.74 -0.41,-0.15 -1.69,-0.84l-9.68 -3.44c-3.38,-0.63 -9.98,0.14 -14.14,-0.42 -3.95,-0.52 -0.53,-0.23 -3.87,-1.02 -2.59,-0.61 -12.9,1.54 -16.85,1.87 -6.66,0.56 -8.03,0.77 -14.04,3.94 -8.65,4.56 -3.97,4.16 -14.66,5.58 -1.59,0.21 -0.32,-0.25 -1.74,0.43 -3.58,1.71 -1.21,4.57 -11.34,5.29 1.76,-0.02 0.59,-0.25 0.99,1.53 0.02,0.09 0.03,0.37 0.05,0.46l-0.01 1.28c-0.78,0.62 -0.34,0.34 -1.57,0.95 -1.02,0.51 -1,0.41 -1.74,0.71l-4.86 2.32c-3.05,1.97 -9.31,4.44 -10.57,6.16 -3.93,5.37 -3.94,2.92 -7.22,6.39 -1.41,1.49 -1.03,1.24 -1.95,2.83 -1.63,2.82 -1.31,3 -4.04,4.81 -0.9,0.6 -1.95,1.3 -2.94,1.94 -1.53,0.97 -0.76,1.67 -3.3,1.05 -5.24,-1.28 2.25,-2.83 -3.73,-3.79z"/>
   <path class="fil7" d="M3075.12 614.2c15.98,12.36 31.13,17.14 40.04,42.07 8.28,23.15 4.53,48.12 -7.35,65.79 -3.35,4.98 -15.41,17.23 -20.25,20.49 -18.38,12.35 -45.26,16.94 -66.64,10.41 -5.82,-1.78 -9.57,-3.39 -14.87,-5.95l-13.39 -7.79c-5.16,0.72 -6.53,4.66 -13.42,6.15 -5.63,1.22 -11.05,0.44 -15.32,3.84 -0.5,16.64 22.94,57.13 36.77,68.72 7.93,6.64 20.8,15.31 34.12,18.62 13.41,3.34 34,4.11 47.56,0.69 48.58,-12.28 93.88,-48.91 123.46,-88.34 23.1,-30.8 47.29,-73.3 40.15,-116.16 -2.13,-12.81 -2.28,-10.35 -9.28,-17.23 -5.2,-5.11 -6.3,-7.29 -14.4,-12.01 -44.76,-26.09 -90.08,-29.2 -142.04,-23.5 -6.47,0.71 -6.35,0.68 -5.84,7.01 0.74,9.25 0.03,18.26 0.7,27.19z"/>
   <path class="fil8" d="M2177.16 1586.26c11.9,-0.31 56.9,-7.38 69.29,-10.03 28.48,-6.09 49.56,-13.19 73.13,-25.2 32.38,-16.5 53.97,-40.25 60.43,-77.01 2.26,-12.89 -1.04,-33.98 -7.13,-46.67l-1.85 -3.77c-10.68,-20.89 -29.46,-36.82 -49.61,-47.86 -4.54,-2.49 -8.5,-4.86 -13.2,-6.82 -4.26,-1.78 -8.78,-4.2 -13.9,-6.07l-21.6 -7.97c-14.5,-4.3 -60.84,-16.95 -73.08,-14.89l-5.49 61.66c-2.26,20 -4.57,41.41 -5.87,61.48 -1.3,20.1 -4.67,40.46 -6.09,60.7 -0.99,14.04 -5.94,53.77 -5.03,62.43z"/>
   <path class="fil9" d="M2920.98 503.57c-17.16,1.87 -26.96,4.73 -40.2,12.2 -19.27,10.87 -30.64,19.94 -41.76,36.62 -19.75,29.61 -22.04,71.19 -6.11,103.94 10.9,22.41 30.91,39.42 54.98,49.8 13.99,6.04 28.72,7.19 45.67,5.64 32.74,-3 53.82,-18.88 69.63,-35.19 22.32,-23.02 18.83,-31.8 25.82,-52.63 7.67,-22.84 -1.28,-38.26 -1.4,-45 -0.18,-10.61 -1.77,-11.96 -6.18,-19.96 -13.16,-23.91 -29.91,-40.07 -55.41,-49.44 -12.6,-4.63 -30.25,-7.6 -45.05,-5.98z"/>
   <path class="fil8" d="M2038.03 1571.12c13.7,3.94 86.84,18.06 99.53,15.45 2.51,-4.09 6.45,-56.28 7.21,-62.46 2.58,-20.88 3.55,-42.45 6.34,-63.3l11.66 -127.12c-45.06,-2.74 -29.94,-19.31 -53.84,-34.1 -1.11,-0.69 -2.6,-1.53 -3.57,-2.03l-3.73 -1.84c-17.66,-8.6 -46.35,-12.16 -64.37,-5.18l4.81 7.18c1.87,2.72 3.4,3.84 5.23,6.76 3.21,5.12 6.38,9.3 8.9,15.1 17.09,39.38 7.23,82.08 -7.52,117.26 -11.71,27.93 -40.26,65.64 -63.29,80.58 -5.06,3.28 -9.18,6.26 -14.62,9.36l-11.55 6.01c-2.38,1.58 -1.83,0.87 -2.81,3.03 2.39,2.16 6.63,3.96 9.71,5.7l19.82 10.58c10.87,5.15 16.95,8.14 29.95,12.38 7.35,2.4 14.37,4.38 22.15,6.61z"/>
   <path class="fil8" d="M2963.56 406.73c-0.76,3.47 6.98,25.13 8.42,30.66l8.27 33.11c0.08,0.26 0.34,0.34 0.45,0.42 0.98,0.67 14.05,5.7 23.66,11.6 21.17,13.02 42.92,34.21 53.08,58 10.44,-0.06 21.19,-2.4 31.95,-3.1 18.54,-1.2 49.64,-1.59 67.74,0.96 5.07,0.71 10.43,1.41 15.51,2.11 4.89,0.67 9.85,2.49 14.24,3.07 2.78,-6.33 4.46,-36.03 4.98,-45.36 1.36,-24.17 -1.82,-66.72 -13.56,-87.26 -5.95,-10.4 -23.71,-13.94 -35.22,-16.04 -48.03,-8.77 -89.96,-6.19 -138,2.21 -7.32,1.28 -37.42,7.19 -41.51,9.63z"/>
   <path class="fil10" d="M1547.32 1721.29c7.82,-3.37 19.39,-46.14 22.66,-58.11 5.63,-20.63 11.22,-42.33 17.93,-62.82l42.81 -119.08c-3.23,1.34 -6.46,3.78 -10.57,5.82 -26.87,13.33 -43.9,26.26 -69,39.76 -15.42,8.3 -67.15,30.81 -85.5,38.42 -14.73,6.11 -29.85,12.3 -44.84,17.54 -11.84,4.14 -33.88,12.39 -43.27,18.27 -17.83,11.16 -15.33,23.22 -21.58,40.78 -4.38,12.31 -14.39,34.32 -24.49,37.08 1.13,1.1 -1.87,4.4 5.03,0.42l91.74 -55.55c11.23,-8.25 20.12,-23.48 30.3,-17.59 10.83,6.26 13.19,9.74 19.93,18.41 1.23,1.59 1.61,2.36 2.68,3.77 1,1.33 1.63,2.01 2.78,3.57 6.96,9.49 14.13,19.57 20.51,30.64 10.7,18.57 10.33,15.7 21.07,30.12 1.67,2.24 3.99,4.99 5.81,7.01 6.13,6.83 14.9,20.79 16.01,21.55z"/>
   <path class="fil11" d="M1002.37 1829.64c0.43,1.24 0.02,0.66 0.77,1.81 0.22,0.33 1.11,1.29 1.45,1.67 4.34,4.85 12.53,22.06 15.25,27.91 11.07,23.81 23.14,38.95 36.32,62.79 3.8,6.87 15.47,26.7 20.3,29.55 8.03,-4.46 24.38,-32.68 32.69,-35.38 9.46,-3.07 40.63,14.89 47.33,19.11 30.51,19.23 80.08,20.59 115.84,20.24 22.78,-0.22 37.09,-2.87 58.26,-9.84l25.3 -9.11c15.08,-4.52 33.72,-13.69 47.14,-20.84 13.79,-7.35 36.47,-26.63 45.16,-38.77 3.5,-4.89 4.94,-4.13 2.56,-11.37 -3.93,-0.17 -6.25,2.72 -11.03,4.46 -18.29,6.66 -36.44,13.08 -54.1,21.06 -16.77,7.58 -48.58,18.96 -65.87,23.69 -18.7,5.11 -31.73,7.11 -52.22,6.87 -49.72,-0.58 -80.46,-7.18 -119.89,-29.55 -12.13,-6.89 -14.73,-5.59 -11.32,-15.29 2.56,-7.26 5.36,-14.42 8.75,-20.81 2.03,-3.83 9.08,-16.87 9.14,-20.7 -24.88,-1.01 -48.35,-4.51 -72.48,-7.6 -9.33,-1.2 -69.72,-1.01 -79.35,0.09z"/>
   <path class="fil12" d="M1542.36 1284.2l-3.81 1.38c5.23,1.22 12.64,2.38 17.32,1.09 3,-0.83 -0.72,-0.26 2.72,-0.8 1.66,-0.26 3.13,-0.07 4.71,-0.22 5.49,-0.5 0.92,-1.18 7.18,-1.5l7.36 -1.46c2.58,-0.47 5.51,-0.02 8.38,-0.46 4.83,-0.74 3.5,-1.15 6.49,-2.31 5.06,-1.96 9.93,0.95 15.28,-2.38 4.42,-2.76 7.88,-0.64 13.28,-4.3 3.59,-2.44 6.21,-4.95 10.06,-7.58l8.18 -9.3c1.76,-3.22 0.9,-2.3 3.41,-4.63 2.83,-2.62 7.72,-13.59 8.95,-17.38 2.8,-8.61 2.03,-22.56 1.69,-33.49 -0.19,-6.15 -3.74,-16.23 -6.97,-20.92 -5.29,-7.68 -5.44,-14.61 -8.41,-20.42 -1.91,-3.73 -3.18,-5.2 -3.24,-10.6 1.1,-0.92 -0.43,-0.93 2.25,-1.17 -4.23,-3.5 1.3,-1.64 -9.47,-7.18 -0.2,-0.1 -1.85,-1.17 -2,-1.3 -1.63,-1.37 -1.64,-2.46 -2.46,-4.31 -8.14,-0.25 -6.63,-2.52 -11.92,-6.03 -9.62,-6.37 -12.2,-6.11 -18.91,4.3 -2.17,3.37 -5.67,6.06 -7.45,9.6l-4.97 6.11c-3,2.38 -3.27,5.88 -7.07,8.85l-19.37 16.62c-2.92,1.98 -3.71,4.51 -5.97,6.77l-24.24 17.36c-0.18,0.15 -0.68,0.59 -0.86,0.74l-0.86 0.74c-0.83,0.73 -0.94,0.89 -1.66,1.51l-7.3 4.75c-2.45,1.72 -5.87,2.36 -8.51,3.63l-10.13 8.01c-2.96,3.77 -8.01,4.48 -10.33,8.1l-3.84 4.96c-2.85,3.99 0.74,8.06 2.46,10.1 0.31,0.36 1.18,1.62 1.32,1.92 1.01,2.13 2.36,6.65 6.3,8.15 3.09,1.18 -2.18,-1.42 1.23,0.17 1.07,0.5 1.3,1.84 1.77,2.75l11.7 11.85c0.54,0.5 1.21,1.07 1.73,1.47l4.61 4.2c1.26,1.38 0.03,0.37 1.68,1.49 0.68,0.46 1.32,0.71 2.05,1.13 0.15,0.09 0.35,0.21 0.51,0.3l1.49 0.92c1.47,0.77 3.04,1.14 4.81,1.69 2,0.62 -0.22,0.16 2.25,0.7 10.81,2.38 3.89,1.66 11.87,5.16 2.14,0.94 0.46,0.39 2.07,0.71 0.35,0.07 3.27,0.39 4.63,0.52z"/>
   <path class="fil0" d="M1449.25 1217.67c0.62,-0.43 23.52,-6.4 26.18,-7.18 9.04,-2.67 16.06,-5.6 23.73,-9.04 36.07,-16.17 69.46,-42.88 85.92,-79.51 5.21,-11.59 5.17,-12.84 8.61,-23.99 3.03,0.16 3.07,1.76 5.64,3.73 9.41,7.22 6.89,5.85 14.29,12.14 5.56,4.72 8.68,8.76 12.8,13.59 2,2.34 2.29,2.63 3.97,4.84 9.97,13.12 19.29,28.21 26.13,44.98 14.09,34.58 3.57,80.09 -28.72,101.76 -28.61,19.2 -74.42,30.67 -111,12.43 -34.03,-16.97 -50.43,-37.78 -65.93,-69.23 -0.33,-0.68 -0.39,-0.62 -0.8,-1.61 -0.71,-1.71 -0.57,-1.54 -0.81,-2.89zm-23.41 -12.91c-0.46,7.11 4.12,17.48 7.07,24.22 21.78,49.85 70.24,93.84 130.27,91.64 34.38,-1.26 65.94,-14.88 89.43,-36.8 24.38,-22.74 36.57,-60.92 28.14,-94.05 -5.75,-22.59 -22.05,-55.87 -37.28,-73.06 -3,-3.38 -4.51,-5.1 -7.47,-8.5 -7.29,-8.36 -43.38,-44.39 -56.36,-34.91 -8.75,6.4 0.95,27.95 -28.74,66.42 -12.46,16.14 -25.03,25.26 -42.51,35.85 -2.72,1.64 -7.5,3.84 -10.64,5.33 -7,3.3 -14.39,6.7 -22.48,9.49 -12.33,4.25 -40.92,9.13 -49.43,14.39z"/>
   <path class="fil13" d="M1784.1 1349.36c7.17,0.7 36.42,2.58 43.07,2.03 5.13,-0.42 9.93,-6.57 12.67,-9.87 3.35,-4.03 6.64,-8.59 10.03,-12.36 30.35,-33.66 65.49,-58.7 113.04,-65.36 41.93,-5.88 24.69,8.08 44.34,-22.7 2.32,-3.63 8.19,-9.85 8.68,-13.04 -3.25,-4 -26.96,-21.34 -31.19,-24.13 -5.4,-3.57 -10.95,-7.36 -16.45,-10.76 -5.02,-3.11 -10.54,-7.84 -14.76,-6.09 -2.89,1.2 -0.92,0.92 -2.89,3.5 -6.5,0.32 -36.77,0.07 -39.75,1.36 -4.04,1.74 -8.26,9.07 -9.87,10.93 -1.05,1.22 -1.64,1.53 -2.72,2.84 -0.94,1.15 -1.12,1.66 -2.06,2.78 -1.67,2 -2.91,3.36 -4.42,5.17 -18.89,22.8 -17.56,23.37 -34.57,46.97l-34.87 46.65c-15.38,19.92 -15.04,16.98 -28.39,32.36 -5.8,6.68 -9.09,8.1 -9.89,9.73z"/>
   <path class="fil0" d="M1089.57 1199.68c-2.6,2.75 0.97,8.11 2.72,10.13 3.76,4.32 19.58,7.29 22.32,9.68 2.47,2.15 3.06,9.43 1.45,12.2 -5.37,2.1 -10.94,-1.78 -17.41,0.05 -0.67,4.34 1.03,5.3 3.9,7.78 2.8,2.42 3.75,3.5 7.12,5.72 3.03,1.99 6.11,2.81 8.4,4.38 3.12,2.15 2.45,4.67 3.5,9.26 3.71,16.15 20.34,20.94 29.76,9.67 10.62,-12.71 -12.97,-34.18 8.06,-84.69 4.66,-11.2 12.62,-22.1 20.77,-30.39 26.16,-26.62 67.23,-16.92 95.86,-1.01 5.95,3.31 10.64,6.53 17.84,8.5 8.06,2.21 8.74,0.19 14,-3.71 7.84,-5.82 5.14,-14.58 -0.22,-21.24 -7.22,-8.95 -18.31,-15.49 -29.82,-21.37 -32.61,-16.64 -89.89,-16.89 -119.81,10.32 -22.29,20.27 -35.89,43.27 -40.78,74.27 -0.9,5.71 -2.11,5.54 -17.22,1.3 -5.97,-1.67 -8.44,-3.18 -10.42,-0.87z"/>
   <path class="fil0" d="M1626.22 746.91c-5.76,2.58 -43.58,-3.93 -81.39,30.18 -10.47,9.45 -17.22,18.22 -23.53,32.43 -15.38,34.69 -12.91,69.04 3.07,102.53 3.47,7.26 8.82,14.43 14.93,19.43 9.03,7.38 18.17,-2.72 21.63,-8.8 5.02,-8.81 -10.11,-24.64 -13.5,-52.05 -2.55,-20.62 -3.19,-37.45 10.46,-55.67 11.84,-15.81 22.46,-20.78 41.56,-27.2 22.52,-7.57 37.77,-5.91 60.65,-1.07 3.9,0.83 9.27,2.32 12.98,3.78 4.51,1.77 10.83,2.88 14.72,-0.69 17.6,-16.15 1.13,-25.91 -12.69,-33.28 -2.55,-1.36 -3.06,-1.79 -4.05,-4.75l-1.75 -5.46c-1.64,-3.68 -8.76,-17.36 -13.43,-9.86 -3.2,5.13 7.27,15.94 -4.61,15.09 -13.85,-1 -3.29,-6.31 -15.4,-26.94 -3.18,-5.41 -10.78,-11.05 -10.35,0.61 0.14,3.73 0.35,8.03 0.65,11.74 0.14,1.71 0.44,3.02 0.7,4.73l-0.68 5.25z"/>
   <path class="fil0" d="M2795.1 999.11c-17.73,4.18 -31.36,17.3 -38.51,31.24 -0.08,0.16 -0.19,0.37 -0.27,0.53 -0.23,0.45 -0.63,1.27 -0.79,1.61 -11.75,24.8 -15.65,58.31 2.15,80.43 4.64,5.77 9.14,9.73 16.98,12.61 6.07,2.22 16.3,5.6 24.15,4.58 4.93,-0.64 11.88,-3.41 15.72,-5.86 8.97,-5.72 13.04,-8.6 19.08,-17.7 12.42,-18.7 20.34,-48.41 13.05,-71.43 -4.84,-15.3 -12.99,-26.26 -27.13,-32.03 -7.14,-2.92 -15.96,-5.97 -24.42,-3.97z"/>
   <path class="fil0" d="M2424.94 1028.61c18.36,-5.23 77.62,10.6 64.08,42.76 -1.96,4.66 -4.88,7.53 -8.69,9.69 -21.93,12.44 -60.66,-2.07 -70.97,-12.35 -6.43,-6.41 -11.65,-16.61 -6.88,-25.52 3.28,-6.14 8.78,-10.64 15.25,-12.74 2.2,-0.71 4.98,-1.2 7.21,-1.84zm-2.15 -31.08c-22.1,2.23 -36.46,12.95 -45.25,27.08 -0.09,0.15 -0.21,0.35 -0.3,0.5l-3.86 8.18c-1.68,4.15 -3.12,8.48 -3.94,13.55 -2.37,14.57 7.22,33.17 16.48,42.96 19.05,20.14 60.53,31.16 83.11,27.13 5.01,-0.9 9.28,-1.9 13.54,-3.25 22.29,-7.04 37.09,-21.16 39.86,-45.56 1.47,-12.92 -0.19,-19.26 -5.49,-28.65 -14.78,-26.19 -49.05,-46.49 -94.15,-41.94z"/>
   <path class="fil0" d="M2131.38 827.89c-34.91,6.92 -43.64,37.44 -49.27,66.81 -3.19,16.64 5.71,35.65 12.78,44.01 13.87,16.39 31.64,21.75 52.18,14.57 31.64,-11.07 52.62,-75.37 26.08,-109.63 -7.58,-9.79 -22.5,-19.58 -41.78,-15.76z"/>
   <path class="fil8" d="M2808.85 1859.56c38.32,0.88 84.88,-5.08 110.31,-27.13 13.67,-11.86 15.04,-20.75 11.46,-40.21 -1.35,-7.33 -7.45,-11.3 -12.81,-14.44 -25.77,-15.06 -67.56,-13.45 -95.46,-14.57 -8.82,-0.35 -6.5,-0.48 -5.96,22.06 0.29,12.12 -0.98,39.87 -3.47,51.33 -1.41,6.49 -4.22,16.49 -4.08,22.97z"/>
   <path class="fil14" d="M82.91 1349.71c-9.48,-3.2 -12.31,-6.18 -17.46,-10.74 -2.62,-2.32 -5.55,-3.87 -7.9,-5.71l-7.53 -5.94c6.01,-1.48 7.58,3.23 11.47,5.89 2.91,1.99 8.6,4.76 10.46,7.14 4.06,5.18 3.13,4.98 10.42,7.17 3.74,1.13 4.53,1.28 8.34,0.41 4.38,-1 2.87,-1.39 5.65,-1 0.12,0.02 0.47,0.38 0.56,0.2 0.09,-0.19 0.39,0.13 0.56,0.24 -2.33,0.86 -8.77,2.43 -10.82,3.8 -0.76,4.74 -0.16,8.14 3.18,9.73 4.71,2.24 6.26,-0.53 6.95,6.52l-4.89 -3.77c-6.24,-5.04 -8.59,-6.18 -8.99,-13.94zm-56.55 -19.1c-0.56,7.43 -0.27,8.09 1.83,14.71l4.12 -0.81c1.74,-0.21 2,-0.27 3.52,-0.53 11.58,-2 15.11,12.91 21.69,18.84 2.25,2.03 6.16,5.74 6.81,9.07 -5.89,-0.73 -10.65,-7.68 -14.77,-10.66 -10.52,-7.62 -6.39,-7.16 -12.36,-13.05 -5.1,3.06 -8.36,5.7 -5.6,14.19 -0.4,4.93 9.47,16.82 11.93,19.25 4.99,4.95 11.42,9.12 20.11,11.96 10.61,3.47 39.52,1.7 50.9,-10.64 6.57,-7.12 8.85,-6.74 14.24,-17.75 6.13,-12.49 4.41,-8.13 5.43,-18.54 1.25,-12.69 3.47,-18.1 -6.24,-31.06 -3.53,-4.71 -10.28,-14.78 -15.62,-15.62 -5.15,6.85 -8.71,18.32 -13.59,25.16 -1.03,-2.41 13.97,-23.56 12.81,-33.14 -4.42,-1.5 -12.13,-1.3 -17.6,-1.85 -7.7,-0.78 -9.48,0.88 -12.54,6.16 -5.92,10.21 -6.12,18.68 3.1,25.17 4.87,3.43 6.3,4.37 10.16,8.21 8.41,8.38 9.74,10.74 20.43,16.29 9.9,5.14 5.95,2.04 13.03,3.81l1.32 0.52c-10.55,1.38 -15.57,-2.1 -23.11,-6.76 -8.73,-5.4 -9.34,-8.58 -15.56,-15.57 -4.92,-5.53 -14.25,-6.53 -15.29,-16 -1.15,-10.37 5.67,-16.17 7.7,-23.22 -16.47,-0.4 -26.61,6.46 -35.63,14.4l-13.31 11.49c-2.44,2.5 -8.57,10.03 -7.9,15.96z"/>
   <path class="fil8" d="M1713.31 1458.6c9.6,11.36 10.01,15.12 17.59,10.59l61.59 -34.31c15.12,-7.77 12.41,-0.75 16.55,-15.41l10.31 -37.42c-15.79,0.97 -30.08,-0.02 -45.79,-0.25 -11.3,-0.16 -26.26,-2.53 -31.17,1.39 -1.98,1.58 -4.36,3.84 -5.92,5.25 -7.13,6.48 -44.13,39.44 -45.99,45.07l22.84 25.08z"/>
   <path class="fil15" d="M1646.6 1179.94c3.23,4.69 6.77,14.77 6.97,20.92 0.35,10.92 1.11,24.88 -1.69,33.49 -1.23,3.8 -6.13,14.77 -8.95,17.38 -2.52,2.33 -1.65,1.41 -3.41,4.63l-8.18 9.3c-3.85,2.62 -6.47,5.14 -10.06,7.58 -5.4,3.66 -8.85,1.55 -13.28,4.3 -5.35,3.33 -10.21,0.42 -15.28,2.38 -3,1.16 -1.66,1.57 -6.49,2.31 -2.86,0.44 -5.8,-0.01 -8.38,0.46l-7.36 1.46c-6.27,0.31 -1.7,1 -7.18,1.5 -1.59,0.15 -3.06,-0.05 -4.71,0.22 -3.44,0.54 0.28,-0.02 -2.72,0.8 -4.68,1.29 -12.1,0.13 -17.32,-1.09l3.81 -1.38c-1.37,-0.12 -4.29,-0.45 -4.63,-0.52 -1.61,-0.32 0.06,0.23 -2.07,-0.71 -7.99,-3.5 -1.06,-2.77 -11.87,-5.16 -2.46,-0.54 -0.24,-0.08 -2.25,-0.7 -1.77,-0.55 -3.34,-0.92 -4.81,-1.69l-1.49 -0.92c-0.15,-0.09 -0.35,-0.21 -0.51,-0.3 -0.73,-0.42 -1.37,-0.67 -2.05,-1.13 -1.65,-1.12 -0.42,-0.12 -1.68,-1.49l-4.61 -4.2c-0.51,-0.4 -1.19,-0.97 -1.73,-1.47l-11.7 -11.85c-0.48,-0.92 -0.7,-2.25 -1.77,-2.75 -3.41,-1.59 1.86,1.01 -1.23,-0.17 -3.94,-1.5 -5.28,-6.02 -6.3,-8.15 -0.14,-0.3 -1.02,-1.56 -1.32,-1.92 -1.71,-2.04 -5.3,-6.11 -2.46,-10.1l3.84 -4.96c2.32,-3.62 7.37,-4.32 10.33,-8.1l10.13 -8.01c2.63,-1.27 6.06,-1.91 8.51,-3.63l7.3 -4.75c0.72,-0.62 0.83,-0.78 1.66,-1.51l0.86 -0.74c0.18,-0.15 0.68,-0.59 0.86,-0.74l24.24 -17.36c2.27,-2.26 3.06,-4.79 5.97,-6.77l19.37 -16.62c3.8,-2.97 4.06,-6.47 7.07,-8.85l4.97 -6.11c1.79,-3.54 5.28,-6.23 7.45,-9.6 6.72,-10.41 9.29,-10.67 18.91,-4.3 5.29,3.51 3.78,5.78 11.92,6.03 0.83,1.85 0.83,2.93 2.46,4.31 0.15,0.13 1.8,1.19 2,1.3 10.77,5.55 5.24,3.68 9.47,7.18 -2.68,0.24 -1.15,0.25 -2.25,1.17 0.06,5.4 1.33,6.86 3.24,10.6 2.97,5.81 3.12,12.74 8.41,20.42zm-197.36 37.74c0.25,1.35 0.1,1.19 0.81,2.89 0.42,1 0.47,0.94 0.8,1.61 15.5,31.45 31.9,52.26 65.93,69.23 36.57,18.24 82.38,6.77 111,-12.43 32.29,-21.67 42.82,-67.18 28.72,-101.76 -6.83,-16.77 -16.15,-31.86 -26.13,-44.98 -1.68,-2.21 -1.97,-2.5 -3.97,-4.84 -4.12,-4.82 -7.24,-8.86 -12.8,-13.59 -7.4,-6.29 -4.88,-4.92 -14.29,-12.14 -2.57,-1.97 -2.61,-3.57 -5.64,-3.73 -3.44,11.15 -3.4,12.4 -8.61,23.99 -16.46,36.64 -49.86,63.35 -85.92,79.51 -7.66,3.44 -14.69,6.37 -23.73,9.04 -2.66,0.79 -25.55,6.75 -26.18,7.18z"/>
   <path class="fil16" d="M894.9 79c2.43,-2.72 9.24,-9.06 13.52,-8.41 -3.45,3.1 -6.25,6.43 -10.57,10.12l0.2 12.37c-0.63,-2.14 -0.63,-5.08 -0.9,-7.69 -0.48,-4.66 -1.58,-4.46 -2.25,-6.38zm-39.89 -17.09c1.84,1.84 3.05,3.87 2.52,6.74 -0.46,2.49 -2.76,3.39 -5.63,4.14 -0.33,-3.38 -0.89,-3.68 -0.85,-7.87 1.89,-1.13 1.22,-1.97 3.95,-3.01zm-7.9 -15.23c-4.21,5.08 -5.26,6.67 -9.26,7.82 -2.92,0.84 -1.54,1.61 -2.83,-0.2l-2.01 2.37c-3.91,6.07 -3.93,23.04 -1.79,28.68 4.61,12.16 7.91,15.45 15.75,21.98 7.68,6.39 32.9,18.48 40.75,11.03 2.19,-2.07 5,-10.65 5.99,-13.49 -3.46,-2.68 -16.89,-11.42 -20.78,-12.42 9.11,0.46 16.94,11.21 22.69,10.68 6.08,-3.17 8.41,-15.84 16.69,-16.49 -2.15,2.49 -4.13,3.98 -6.37,6.83 -6.18,7.88 -11.93,15.37 -16.54,24.88 9.63,0.02 12.15,-4.19 15.99,-7.86l7.19 -7.19c1.87,-1.81 3.05,-2.98 4.88,-4.75 7.82,-7.59 5.92,-12.86 7.13,-21.5 2.96,-21.03 -11.41,-36.58 -28.39,-44.7 -1.51,-0.72 0.43,0.01 -1.73,-0.71 -2.02,1.93 -0.99,0.93 -6.66,0.27 -7.73,-0.9 -27.27,6.33 -31.26,8.92l-9.44 5.84z"/>
   <path class="fil17" d="M1137.42 823.56c1.53,-10.64 0.29,-30.07 -5.72,-36.85 -6.18,-6.98 -19.5,-14.2 -30.9,-6.75 -3.74,2.44 -8.7,7.16 -10.82,10.78 -4.07,6.96 -2.35,10.57 -3.79,17.7 -0.64,3.16 0.03,2.39 -3.21,2.59 -4.28,0.27 -5.99,-1.54 -14.68,1.15 -6.11,1.89 -11.25,3.65 -13.79,7.82 -7.83,12.9 -4.92,22.32 2.78,32.31 3.74,4.86 4.87,6.7 13.2,8.29 22.03,4.21 34.39,1.77 52.2,-8.38 6.91,-3.94 13.18,-17.94 14.73,-28.66z"/>
   <path class="fil18" d="M2703.75 359.16c5.98,0.96 -1.51,2.51 3.73,3.79 2.54,0.62 1.77,-0.08 3.3,-1.05 1,-0.63 2.04,-1.34 2.94,-1.94 2.73,-1.8 2.41,-1.99 4.04,-4.81 0.92,-1.59 0.55,-1.34 1.95,-2.83 3.28,-3.47 3.29,-1.01 7.22,-6.39 1.25,-1.71 7.52,-4.19 10.57,-6.16l4.86 -2.32c0.74,-0.3 0.72,-0.21 1.74,-0.71 1.24,-0.61 0.8,-0.33 1.57,-0.95l0.01 -1.28c-0.01,-0.08 -0.03,-0.36 -0.05,-0.46 -0.4,-1.79 0.77,-1.55 -0.99,-1.53 10.13,-0.73 7.76,-3.58 11.34,-5.29 1.43,-0.68 0.16,-0.22 1.74,-0.43 10.69,-1.41 6.01,-1.01 14.66,-5.58 6.01,-3.17 7.38,-3.38 14.04,-3.94 3.95,-0.33 14.26,-2.48 16.85,-1.87 3.33,0.79 -0.08,0.5 3.87,1.02 4.16,0.55 10.76,-0.22 14.14,0.42l9.68 3.44c1.28,0.69 -0.05,0.1 1.69,0.84l19.24 10.95c0.14,0.09 0.34,0.23 0.48,0.32l7.14 4.82c3.45,2.91 6.33,7.42 8.82,10.99 3.81,5.45 10.39,10.17 13.71,16.51 2.09,4 5.37,7.56 8.14,11.18 0.71,0.92 1.32,2.14 1.74,2.94l4.48 10.72c0.54,1 0.41,0.84 0.93,1.57l3.53 4.37c3.59,6.57 5.76,13.93 9.27,20.33l4.15 15.01c-0.03,1.25 -0.48,6.35 -0.58,9.19 -2.12,1.6 1.13,-0.79 -1.78,0.67 -2.77,1.39 -4.93,3.99 -6.4,6.64 -4.83,0.03 -12.2,0.88 -14.61,-1.68 -2.62,1.02 -1.18,1.8 -2.98,1.44 -0.93,-1.71 -1.18,-1.34 -4,-2.42 0.03,0.05 0.18,-0.03 0.19,0.02 0.12,1.42 1.01,-0.6 -1.27,-2.92l-8.97 -5.66c-0.14,-0.08 -0.34,-0.2 -0.47,-0.29l-2.54 -2.44c-0.76,-1.47 -0.24,0.04 -0.19,-3.5 -3.3,-0.15 -2.91,-0.61 -5.27,-1.41 -0.84,-0.29 -1.14,-0.29 -1.87,-0.59 -2.87,-1.17 -1.47,-1.75 -1.8,-2.72l-0.32 -0.66c-1.35,-1.33 -2.76,-1.13 -4.56,-1.71l-6.16 -1.11c-1.6,-0.32 -1.94,-0.75 -3.69,-1.08l-6.11 -1.03c-0.19,-0.06 -0.37,-0.17 -0.56,-0.23 -0.2,-0.06 -0.39,-0.16 -0.6,-0.22 -4.75,-1.31 -13.13,-0.63 -18.19,-0.36 -4.23,0.22 -4.39,1.3 -8.18,1.65l-2.64 4.5c-1.2,1.43 -0.64,0.32 -1.53,2.56l6.87 0.21c-2.21,-2.03 -10.08,1.18 -12.6,2.72 -2.23,1.37 0.89,1.75 -1.86,1.41 -0.92,-0.11 -1.72,-1.04 -4.37,0.16 -3.92,1.79 1.45,0.52 -3.63,1.71 -7.86,1.84 -13.08,4.39 -19.88,8.41 -8.02,4.74 -13.64,9.43 -18.72,16.84 -0.93,1.37 -1.29,2.13 -2.21,3.22 -2.56,3.05 -4.62,3.62 -5.18,8.03 4.03,-1.29 -0.8,-0.75 3.08,-0.36 3.78,-6.27 9.46,-12.05 14.14,-16.43 5.88,-5.49 9.58,-8.33 17.91,-12.43 15.01,-7.39 34.16,-9.87 53.05,-7.9 38.04,3.95 50.19,28.71 61.08,29.8 3.76,0.37 10.08,-0.6 13.51,-1.4 2.62,-0.62 4.07,-1.11 7.11,-1.12 3.87,-0.01 4.98,0.77 7.47,-0.72l-4.39 -0.7c0.43,-3.91 2.16,-3.87 4.52,-6.92 1.8,-2.33 2.8,-4.79 3.63,-7.71 -0.49,-5.2 0.71,-7.43 -0.73,-12.59 -1.72,-6.14 -6.79,-15.03 -10.66,-28.42 -3.37,-11.66 -11.68,-25.39 -17.32,-34.66 -19.43,-31.93 -51.19,-66.66 -92.83,-63.22 -28.31,2.34 -52.79,14.05 -74.86,29.15 -6.13,4.19 -25.93,20.42 -28.57,24.61z"/>
   <path class="fil19" d="M1200.37 700.4c-1.12,1.71 -6.22,0.64 -8.24,0.45 -20.59,-0.79 -28.21,22.05 -23.33,31.97 7.64,15.53 23.28,21.02 40.08,17.64 8.77,-1.77 25.59,-4.83 31.45,-9.26 5.03,-3.81 9.4,-21.8 10.24,-29.74 1.05,-9.93 -0.49,-27.9 -6.58,-33.86 -2.11,-2.07 -9.77,-5.66 -13.08,-6.88 -5.88,-2.17 -11.43,-0.39 -16.31,2.38 -7.57,4.28 -12.27,13.71 -12.52,22.57 -0.12,4.22 1.2,2.88 -1.7,4.73z"/>
   <path class="fil0" d="M1479.76 1037.8c-8.94,28.25 -39.46,42.03 -50.58,35.02 -22.76,-14.35 0.27,-46.52 16.49,-53.52 29.79,-12.85 35.79,13.12 34.09,18.5zm-25.9 -39.4c-25.61,6.93 -41.63,20.96 -50.15,45.29 -4.72,13.48 0.12,29.28 7.04,37.16 8.7,9.9 16.16,14.12 35.35,10.02 23.69,-5.06 43.89,-23.34 50.55,-44.58 4.96,-15.83 0.12,-28.52 -7.35,-36.82 -6.5,-7.22 -19.72,-15.32 -35.43,-11.07z"/>
   <path class="fil20" d="M1214.94 1747.69c0.61,12.31 4.82,19.4 11.91,24.7 6.71,5.01 15.96,10.6 27.4,8.4 19.3,-3.71 13.58,-0.91 24.1,-12.7 5.93,-6.65 11.44,-16.96 9.81,-26.67 -1.63,-9.73 -6.85,-16.94 -13.51,-23.26 -16.5,-15.66 -35.72,-12.29 -49.94,2.74 -6.91,7.3 -10.43,13.39 -9.77,26.79z"/>
   <path class="fil21" d="M2424.94 1028.61c-2.23,0.64 -5.01,1.13 -7.21,1.84 -6.47,2.1 -11.97,6.6 -15.25,12.74 -4.77,8.91 0.45,19.11 6.88,25.52 10.31,10.28 49.05,24.79 70.97,12.35 3.81,-2.16 6.73,-5.02 8.69,-9.69 13.54,-32.16 -45.73,-47.99 -64.08,-42.76z"/>
   <path class="fil22" d="M2851.09 481.05l-1.5 -1.13c4.02,-1.66 2.25,-0.27 2.39,-0.16 -0.1,-0.24 -0.18,-0.56 -0.25,-0.74 -0.06,-0.17 -0.16,-0.5 -0.24,-0.7 -2.06,-5.15 -4.44,-2.27 -0.93,-4.64 -3.16,-3.72 -13.32,-6.67 -17.68,-7.57 -6.77,-1.39 -15.82,-0.08 -22.62,1.63 -18.28,4.6 -21.92,7.78 -31.4,19.7 -6.79,8.55 -13.49,24.77 -10.54,39.28 3.54,17.38 6.89,19.8 16.53,28.26 1.58,1.39 1.37,1.54 3.17,2.82 2.2,-1.52 8.83,-18.63 11.34,-22.71 5.04,-8.19 8.98,-14.07 14.64,-20.51 5.31,-6.04 19.86,-21.1 26.8,-25.95 3.15,-2.2 8.3,-4.62 10.3,-7.58z"/>
   <path class="fil20" d="M1522.87 1781.8l0.32 -3.57c3.56,6.68 3.45,6.85 7.43,8.65 4.67,2.1 6.41,4.22 11.17,7.25l17.75 6.02c10.45,1.51 12.75,-0.96 14.42,0.9l0.98 -0.54c1.84,-4.33 2.72,-4.36 6.15,-7.83 3.2,-3.24 4.86,-4.44 6.61,-8.52 1,-2.33 5.14,-14.79 4.22,-18.72 -0.51,-2.17 -1.04,-1.06 -1.09,-2.91 -0.06,-2.68 -1.08,-1.39 1.59,-2.22 -6.13,-24.53 -41.27,-34.9 -59.5,-18.19 -11.63,10.65 -15.78,32.97 -10.06,39.71z"/>
   <path class="fil22" d="M3021.47 718.83c5.03,3.41 28.06,2.72 35.07,1.57 18.44,-3 39.92,-35.5 21.88,-60.11 -1.72,-2.35 -7.53,-7.36 -11.4,-7.84 -3.49,4.76 -8.65,23.8 -18.9,37.08 -12.67,16.43 -10.62,11.86 -19.5,22.07 -2.76,3.18 -5.42,3.57 -7.15,7.23z"/>
   <path class="fil23" d="M2773.86 1830.31c0.64,-5.69 2.65,-11.91 3.07,-17.83 1.1,-15.3 0.34,-43.43 -2.44,-57.74 -12.66,-65.02 -40.46,-98.32 -69.64,-152.51 -1.56,-2.89 -5.13,-10.29 -7.14,-12.75 -2.13,1.96 0.01,4.76 2.73,10.58l2.32 6.14c0.18,-0.2 1.85,-0.11 -0.18,-0.3l-0.8 0.15c-0.05,-0.19 -0.39,0.08 -0.57,0.15 -0.24,2.79 -0.57,1.25 -0.17,3.11 0.64,2.98 1.67,-0.25 1.94,8.41 7.07,3.97 6.47,15.74 12.53,19.1l0.8 -0.23c1.4,3.53 2.54,7.29 4.03,10.75 2.96,6.87 2.16,0.77 5.18,8.35l2.16 5.01c1.68,5.94 1.59,2.87 4.52,7.63 0.08,0.14 0.23,0.32 0.3,0.47l1.05 4.42c0.04,0.22 0.13,0.52 0.16,0.7l0.43 1.35c2.81,3.52 -1.17,-1.43 1.55,1.14 1.77,1.67 -0.01,0.7 1.96,3.26 6.6,8.63 1.24,1.04 6.02,9.93 3.45,6.41 4.97,16.46 9.92,27.63 4.65,10.51 -0.25,3.6 4.56,12.3l1.26 2.71c0.07,0.18 0.16,0.38 0.23,0.56 0.76,1.97 0.18,0.04 0.77,2.37 0.71,2.82 1.55,7.48 2.43,9.63 1.82,4.46 1.01,0.47 2.41,3.93 1.14,2.82 2.01,12.22 2.68,15.6 0.01,0.03 0.78,2.45 0.8,2.51l0.73 1.64c2,5.18 3.59,7.16 3.79,9.6 0.12,1.55 0,3.96 -0,5.6 -0.03,13.45 0.57,23.57 -0.96,36.63 -0.79,6.76 -2.76,10.36 1.58,10.02z"/>
   <path class="fil24" d="M2681.26 1555.95c-0.61,-4.72 -12.79,-26.73 -16.41,-33.62 -12.81,-24.37 -19.88,-43.32 -30.18,-68.92 -2.36,-5.87 -4.73,-11.96 -7.02,-17.78 -10.71,-27.31 3.25,-15.87 -38.99,-21.06 -20.34,-2.5 -42.43,-4.66 -62.54,-7.91 -7.67,-1.24 -22.27,-5.03 -29.28,-4.78l-2.75 0.1c4.05,3.91 13.4,3.35 21.23,6.28l10.47 2.54c2.09,0.42 4.66,0.37 5.2,0.44 3.22,0.39 0.51,0.77 5.12,1.25 4.21,0.44 8.11,0.52 12.01,0.83 4.77,0.37 7.83,1.77 11.23,2.25 4.24,0.6 8.67,-0.26 12.95,0.63 4.88,1.02 6.9,1.22 12.68,1.19 -0.21,-0.57 -1.17,0.3 -0.8,1.37 4.39,0.15 5.57,1.61 15.19,1.69 -0.12,-0.1 -4.93,-1.78 4.16,5.75 3.74,3.1 1.27,2.63 9.43,4.53 -0.04,0.12 -0.24,0.27 -0.24,0.31l1.51 2.06c5.46,3.87 7.78,9.86 9.75,16.34 1.61,5.29 0.98,0.68 2.37,8.04l3.94 9.8c0.12,0.22 0.52,0.76 0.64,0.97 0.51,1 0.7,-1.08 0.93,3.14l1.19 -1.18 6.24 5.83c0.87,0.7 1.89,1.42 2.24,2.12l2.29 5.84c2.04,3.98 0.29,3.33 1.78,7.68l5.53 10.38c0.9,2.85 0.12,4.57 2.08,7.08 1.55,1.99 1.81,1.03 3.11,3.09 0.09,0.14 0.19,0.35 0.27,0.5l7.81 18.35c0.8,3.39 0.92,2.45 3.77,5.06 2.57,2.35 1.81,2.11 2.82,5.19 0.07,0.22 0.15,0.42 0.22,0.63l4.53 9.97c0.08,0.16 0.19,0.37 0.26,0.52 0.12,0.25 1.1,2.53 1.19,2.69 2.22,4 -0.71,1.27 2.93,3.06 2.3,-1.18 1.19,0.48 1.16,-2.27z"/>
   <path class="fil25" d="M1425.34 1044.62c1.05,1.86 -0.49,-1.03 0.93,0.87 1.18,1.57 1.86,9.96 2.26,13.6 4.33,2.65 8.86,4.19 15.67,3.99 7.23,-0.21 8.5,-2.32 13.92,-5.72 3.45,-2.16 7.92,-3.76 10.25,-8.95 1.72,-3.83 -0.86,-1.34 3.56,-6.04 2.21,-2.36 2.71,-4.45 1.26,-8.07 -1.12,-2.78 -7.92,-8.7 -9.97,-9.32 -5.59,-1.7 -17.87,1.49 -23.87,4.08 -4.3,1.86 -3.85,3.21 -9.6,9.5l-4.42 6.05z"/>
   <path class="fil26" d="M1429.76 1038.56c5.74,-6.29 5.3,-7.64 9.6,-9.5 6,-2.59 18.28,-5.78 23.87,-4.08 2.04,0.62 8.85,6.54 9.97,9.32 1.45,3.62 0.95,5.71 -1.26,8.07 -4.42,4.71 -1.84,2.21 -3.56,6.04 -2.33,5.19 -6.8,6.79 -10.25,8.95 -5.42,3.39 -6.69,5.51 -13.92,5.72 -6.81,0.2 -11.34,-1.34 -15.67,-3.99 -0.4,-3.64 -1.08,-12.02 -2.26,-13.6 -1.42,-1.9 0.12,0.99 -0.93,-0.87l4.42 -6.05zm50 -0.76c1.7,-5.37 -4.3,-31.35 -34.09,-18.5 -16.22,7 -39.25,39.17 -16.49,53.52 11.12,7.01 41.64,-6.77 50.58,-35.02z"/>
   <path class="fil27" d="M2342.47 1589.34c-0.1,4.05 -2.73,-0.29 1.07,2.46 1.15,-1.38 -0.48,-0.14 2.88,-1.54l5.52 -2.71c0.15,-0.09 0.34,-0.24 0.48,-0.33l20.06 -11.85c2,-1.38 0.33,-0.07 1.85,-1.56 3.23,-3.16 2.58,-2.71 5.44,-3.31 7.77,-1.64 9.14,-6.13 9.98,-6.71 0.97,-0.67 0.67,0.01 2.18,-0.99 2.59,-1.71 1.24,-2.51 4.85,-5.61 3.23,-2.77 1.8,-2.34 5.13,-8.51l0.32 -1.84c-0.01,-0.06 -0.51,-0.02 -0.56,-2.19l1.37 -1.26c1.23,-0.93 -0.64,-0.07 1.83,-1.04 4.78,-1.87 1.32,0.7 4.52,-1.7 0.28,-6.28 -1.74,-3.71 1.83,-9.17 0.69,-1.06 0.43,-0.67 1.2,-2.02 1.96,-3.45 3.13,-4.67 4.41,-8.55l3.29 -9.43c0.92,-1.68 0.66,0.52 1.17,-2.2 0.55,-2.89 -0.44,-3.6 -2.76,-3.03 -0.87,0.83 -4.78,11.71 -5.79,14.05 -6.29,14.52 -14.47,23.84 -24.77,35.17 -6.07,6.68 -12.73,13.21 -21.17,18.81l-24.33 15.06z"/>
   <path class="fil28" d="M1235.89 849.14c0.66,2.18 -0.77,2.85 4.61,-1.37 5.39,-4.22 4.77,-4.82 8.32,-8.57 1.53,-1.62 3.16,-2.51 4.8,-3.98 3.45,-3.1 3.7,-5.36 8.11,-8.7l7.26 -5.73c0.89,-1.07 0.62,0.35 0.63,-1.4l-0.39 -1.18c-0.05,-0.15 -0.18,-0.46 -0.34,-0.64 -3.25,2.62 -10.81,9.33 -14.97,10.14 -5.18,-0.71 -15.47,-18.27 -15.48,-18.28 -6.59,-6.06 -15.56,8.63 2.71,22.92 2.35,1.84 3.93,2.34 5.71,4.81 -1.05,3.41 -8.27,8.3 -10.98,12z"/>
   <path class="fil28" d="M1198.07 884.19c0.33,0.6 -0.95,2.64 4.97,-1.02 12.44,-7.68 6.52,-6.1 13.32,-13.26l14.2 -12.15c2.17,-1.97 3.02,-2.89 2.64,-6.36l-3.3 0.85c-3.49,-3.49 -6.57,-5.02 -9.28,-8.99 -2.66,-3.89 -4.19,-7.32 -8.26,-9.54 -10.74,0.88 -6.37,10.29 -2.49,15.51 1.98,2.67 3.89,4.24 6.47,6.34 2.5,2.04 4.13,2.66 6.04,5.38 -4.5,6.41 -4.44,1.63 -11.2,12.58 -4.57,7.39 -7.46,5.33 -13.11,10.67z"/>
   <path class="fil29" d="M1522.87 1781.8c-0.08,12.35 20.73,27.05 37.05,24.78 3.47,-0.48 11.8,-2.79 14.04,-5.54 -1.66,-1.86 -3.97,0.61 -14.42,-0.9l-17.75 -6.02c-4.76,-3.03 -6.5,-5.14 -11.17,-7.25 -3.98,-1.79 -3.87,-1.96 -7.43,-8.65l-0.32 3.57z"/>
   <path class="fil28" d="M1068.96 899.91c-4.09,-1.77 -8.2,-2.7 -12.24,-4.65 -14.39,-6.95 -18.35,-11.89 -27.89,-22.5 -5.62,-6.25 -9.43,-10.89 -13.67,-19.9l-8.67 -23.77c-3.58,3.18 5.23,22.93 6.62,25.07 4.47,6.89 5.14,9.5 7.47,13.28l5.39 8.2c12.93,13.24 12.55,14.88 28.9,23.15 5.08,2.57 6.89,3.89 14.13,4.36l-0.05 -3.24z"/>
   <path class="fil30" d="M31.61 1362.37c-2.76,-8.5 0.49,-11.13 5.6,-14.19 5.97,5.89 1.84,5.43 12.36,13.05 4.12,2.98 8.88,9.93 14.77,10.66 -0.65,-3.32 -4.55,-7.04 -6.81,-9.07 -6.58,-5.93 -10.12,-20.84 -21.69,-18.84 -1.53,0.26 -1.78,0.33 -3.52,0.53l-4.12 0.81c-2.1,-6.62 -2.39,-7.28 -1.83,-14.71 -1.88,2.09 -1.55,4.66 -1,8.38 1.24,8.32 0.15,6.86 2.81,16.38 1.77,6.32 1.46,5.4 3.44,6.99z"/>
   <path class="fil27" d="M2404.27 1387.5c1.56,4.45 4.82,7.69 6.66,12.17 4.29,10.48 10.96,29.33 12.51,40.28 1.08,0.92 1.38,0.58 1.82,0.44 0.14,-0.04 0.39,-0.35 0.62,-0.48 -0.27,-5.11 -1.15,-1.06 -1.79,-13.62 -0.31,-6.02 -2.4,-7.54 -4.38,-12.04 -2.08,-4.72 -2.24,-7.09 -3.74,-10.54 -5.16,-11.84 -2.22,-3.5 -1.68,-10.64 9.06,-0.45 3.42,-4.26 8.41,-5.12l-1.59 -1.33c-0.19,-0.2 -0.5,-0.64 -0.8,-0.91l-13.12 -3.4c-1.83,1.93 -0.79,-0.34 -1.91,2.61 -0.3,0.78 -0.15,0.84 -0.47,1.77l-0.52 0.82z"/>
   <path class="fil31" d="M1059.32 581.02c1.13,1.06 -0.95,0.59 3,1.8 0.85,0.26 3.59,0.44 4.53,0.39 8.37,-0.5 38.34,-19.51 40.64,-22.22 1.88,-2.22 -0.35,2.56 1.27,-2.04 -11.99,2.55 -25.57,12.25 -35.84,17.98 -7.43,4.15 -6.13,3.96 -13.59,4.09z"/>
   <path class="fil32" d="M2424.5 1482.14l0.64 2.1c3.36,-1.46 0.71,0.8 2.35,-2.95 3.45,-7.88 4.77,-20.12 2.56,-28.55l-0.4 -1.31c-0.05,-0.16 -0.12,-0.44 -0.22,-0.65 -1.59,-0.08 0.04,-1.41 -1.23,0.56 -1.29,2 -0.22,1.12 0.02,1.45 -0.15,-3.22 -0.1,-3.73 -0.9,-6.11 -0.16,-0.49 -0.55,-1.7 -1,-2.23 -1.8,-2.16 0.34,-2.18 -1.85,-0.32 -0.5,3.34 0.88,14.14 0.9,18.97 0.03,5.5 -1.44,14.78 -0.88,19.04z"/>
   <path class="fil33" d="M1085.59 1556.3c3.26,0.03 52.33,19.24 60.16,16.64 -2.25,-1.6 -32.89,-9.89 -44.27,-14.95 -4.7,-2.09 -8.52,-5.13 -12.57,-6.35 -2.32,0.26 -2.48,2.39 -3.31,4.66z"/>
   <path class="fil34" d="M2713.25 1947.54c3.09,0.14 15.44,1.56 17.04,1.28 3.76,-0.67 5.33,-7.31 7.12,-11.11 4.04,-8.55 8.2,-17.59 11.79,-26.34 -4.23,0.13 -1.36,-1.05 -3.51,2.01l-6.61 15.03c-1.43,3.13 -2.35,3.28 -3.48,5.19 -2.22,3.77 -0.44,5.95 -4.83,8.47 -5.21,2.99 -9.53,3.1 -17.11,3.15 -1.2,1.44 -2.61,-2.14 -0.42,2.33z"/>
   <path class="fil35" d="M843.51 45.8l3.81 -0.54 -0.2 1.42 9.44 -5.84c3.99,-2.59 23.53,-9.82 31.26,-8.92 5.68,0.66 4.64,1.66 6.66,-0.27 -4.24,-0.85 -9.08,-2.8 -14.72,-2.25 -5.45,0.53 -9.78,1.44 -14.55,3.32 -6.64,2.62 -18.86,8.68 -21.71,13.09z"/>
   <path class="fil36" d="M82.91 1349.71c0.4,7.76 2.75,8.91 8.99,13.94l4.89 3.77c-0.69,-7.05 -2.24,-4.28 -6.95,-6.52 -3.34,-1.59 -3.94,-4.99 -3.18,-9.73 2.05,-1.37 8.49,-2.94 10.82,-3.8 -0.17,-0.11 -0.47,-0.43 -0.56,-0.24 -0.09,0.18 -0.44,-0.19 -0.56,-0.2 -2.78,-0.39 -1.27,0 -5.65,1 -3.81,0.87 -4.6,0.72 -8.34,-0.41 -7.29,-2.19 -6.36,-1.99 -10.42,-7.17 -1.86,-2.37 -7.54,-5.14 -10.46,-7.14 -3.89,-2.66 -5.46,-7.37 -11.47,-5.89l7.53 5.94c2.35,1.84 5.28,3.39 7.9,5.71 5.14,4.56 7.98,7.53 17.46,10.74z"/>
   <path class="fil37" d="M2128.74 1950.2c1.9,-8.61 -6.04,-23.77 -11.75,-26.77 0.64,5.6 2.49,11.92 3.94,17.3 2.13,7.94 0.27,12.53 7.81,9.47z"/>
   <path class="fil38" d="M1067.12 669.83c7.72,-1.05 11.05,-6.91 15.49,-9.74l10.52 -7.05c1.78,-1.1 2.45,-0.97 3.48,-2.96 -1.06,-0.72 0.01,-0.48 -1.88,-0.75 -2.66,-0.38 -4.52,0.78 -7.06,2.28l-15.18 9.62c-3.64,2.46 -5.18,3.41 -5.36,8.6z"/>
   <path class="fil39" d="M2924.98 459.63c3.17,0.43 8.33,-0.93 10.71,-2.36 0.14,-5.12 -4.08,-11.57 -6.95,-12.98 -0.83,2.92 -1.83,5.38 -3.63,7.71 -2.36,3.05 -4.09,3.02 -4.52,6.92l4.39 0.7z"/>
   <path class="fil40" d="M1574.94 1800.5c2.94,-0.8 8.08,-4.85 9.71,-6.67 2.1,-2.35 4.25,-6.24 5.74,-9.48 2.97,-6.5 5.85,-16.3 2.04,-24.06 -2.68,0.83 -1.66,-0.46 -1.59,2.22 0.04,1.85 0.58,0.74 1.09,2.91 0.92,3.93 -3.22,16.39 -4.22,18.72 -1.75,4.08 -3.41,5.28 -6.61,8.52 -3.43,3.48 -4.31,3.5 -6.15,7.83z"/>
   <path class="fil41" d="M1192.13 700.85c2.02,0.19 7.12,1.26 8.24,-0.45 0.93,-4.04 -0.01,-2.03 0.15,-5.52 0.14,-2.98 0.62,-3.03 1.04,-6.06 -2.49,0.76 -4.61,0.61 -7.02,1.68 -1.34,0.59 -4.31,2.55 -5.5,3.39l-0.41 4.96c0.21,0.14 0.56,0.04 0.68,0.37 0.32,0.85 0.83,0.44 1.29,0.7 1.61,0.92 0.15,-0.15 1.53,0.93z"/>
   <path class="fil33" d="M1750.93 604.69c1.56,2.14 13.02,8.95 16.23,10.04 -0.57,-1.2 -1.34,-1.83 -0.11,-2.53 -2.09,-3.51 -5.81,-6.15 -8.99,-8.96l-9.51 -7.47c-0.13,0.06 -3.1,-0.41 1.52,3.42l12.01 10.72c-3.47,-2.33 -8.42,-4.24 -10.28,-7.54 -2.58,2.08 -0.82,-1.04 -0.87,2.33z"/>
   <path class="fil33" d="M851.06 64.93c-0.04,4.18 0.52,4.49 0.85,7.87 2.87,-0.75 5.17,-1.65 5.63,-4.14 0.53,-2.87 -0.68,-4.9 -2.52,-6.74 -2.73,1.05 -2.06,1.89 -3.95,3.01z"/>
   <path class="fil36" d="M894.9 79c0.66,1.92 1.77,1.73 2.25,6.38 0.27,2.62 0.27,5.56 0.9,7.69l-0.2 -12.37c4.32,-3.69 7.12,-7.02 10.57,-10.12 -4.28,-0.65 -11.08,5.69 -13.52,8.41z"/>
   <path class="fil42" d="M835.04 54.3c1.28,1.81 -0.09,1.03 2.83,0.2 4,-1.14 5.05,-2.74 9.26,-7.82l0.2 -1.42 -3.81 0.54c-4.25,1.44 -5.91,4.69 -8.47,8.5z"/>
   <path class="fil43" d="M1767.15 614.73c1.48,2.08 16.3,11.83 19.34,12.39 -0.96,-2.41 1.18,-0.43 -4.3,-4.15l-15.15 -10.77c-1.23,0.71 -0.46,1.33 0.11,2.53z"/>
   <path class="fil44" d="M1929.44 1150.82c-3.57,3.31 -2.76,10.34 2.1,9.04 4.75,-1.27 2.36,-7.69 -2.1,-9.04z"/>
   <path class="fil45" d="M2851.09 481.05c2.6,-0.21 3.66,-0.95 5.75,-2.84 -1.37,-2.56 -3.39,-4.26 -6.28,-4.53 -3.51,2.37 -1.12,-0.51 0.93,4.64 0.08,0.2 0.18,0.53 0.24,0.7 0.07,0.19 0.15,0.5 0.25,0.74 -0.14,-0.11 1.63,-1.5 -2.39,0.16l1.5 1.13z"/>
   <path class="fil20" d="M2404.27 1387.5l0.52 -0.82c0.32,-0.93 0.17,-0.99 0.47,-1.77 1.12,-2.95 0.08,-0.68 1.91,-2.61l-6.93 -1.89c1.03,3.1 2.4,4.73 4.02,7.08z"/>
   <path class="fil46" d="M1786.5 627.12l3.28 2.52c-1.18,-1.55 -0.75,-1.7 -3.28,-2.52z"/>
  </g>
 </g>
</svg>
